<?xml version="1.0" encoding="UTF-8"?>
<svg id="Layer_2" data-name="Layer 2" xmlns="http://www.w3.org/2000/svg" xmlns:xlink="http://www.w3.org/1999/xlink" viewBox="0 0 180.95 245.04">
  <defs>
    <style>
      .cls-1 {
        fill: url(#New_Gradient_Swatch_2-2);
      }

      .cls-2 {
        fill: url(#New_Gradient_Swatch_2);
      }

      .cls-3 {
        fill: url(#New_Gradient_Swatch_2-4);
      }

      .cls-4 {
        fill: url(#New_Gradient_Swatch_2-5);
      }

      .cls-5 {
        fill: url(#New_Gradient_Swatch_2-6);
      }

      .cls-6 {
        fill: url(#New_Gradient_Swatch_2-3);
      }
    </style>
    <linearGradient id="New_Gradient_Swatch_2" data-name="New Gradient Swatch 2" x1="48.74" y1="44.02" x2="174.02" y2="44.02" gradientUnits="userSpaceOnUse">
      <stop offset=".08" stop-color="#b07908"/>
      <stop offset=".11" stop-color="#b98819"/>
      <stop offset=".2" stop-color="#ceab3f"/>
      <stop offset=".29" stop-color="#dec65d"/>
      <stop offset=".37" stop-color="#eada73"/>
      <stop offset=".45" stop-color="#f1e680"/>
      <stop offset=".53" stop-color="#f4ea85"/>
      <stop offset=".7" stop-color="#ddc45b"/>
      <stop offset="1" stop-color="#b07908"/>
    </linearGradient>
    <linearGradient id="New_Gradient_Swatch_2-2" data-name="New Gradient Swatch 2" x1="9.39" y1="165.42" x2="133.74" y2="165.42" xlink:href="#New_Gradient_Swatch_2"/>
    <linearGradient id="New_Gradient_Swatch_2-3" data-name="New Gradient Swatch 2" x1="0" y1="198.55" x2="47.95" y2="198.55" xlink:href="#New_Gradient_Swatch_2"/>
    <linearGradient id="New_Gradient_Swatch_2-4" data-name="New Gradient Swatch 2" x1="132.53" y1="79.67" x2="180.95" y2="79.67" xlink:href="#New_Gradient_Swatch_2"/>
    <linearGradient id="New_Gradient_Swatch_2-5" data-name="New Gradient Swatch 2" x1="52.58" y1="225.07" x2="98.15" y2="225.07" xlink:href="#New_Gradient_Swatch_2"/>
    <linearGradient id="New_Gradient_Swatch_2-6" data-name="New Gradient Swatch 2" x1="81.82" y1="103.11" x2="127.69" y2="103.11" xlink:href="#New_Gradient_Swatch_2"/>
  </defs>
  <g id="Layer_6" data-name="Layer 6">
    <g>
      <path class="cls-2" d="M158.36,0c12.9,5.46,16.52,23.75,15.49,36.39-1.3,15.97-14.91,28.23-29.69,32.3-3.14.86-12.46,2.79-15.07,1.21l-9.71-23.87-2.35,7.04-6.56-3.76,9.13,24.43c-9.69,11.5-28.08,17.03-42.57,13.01-10.7-2.97-20.16-12.8-24.72-22.71-4.85-10.57-6.91-24.89,8.27-26.81,15.55-1.97,34,4.46,48.01,10.68.29-.28-3.36-5.64-3.83-6.26-.76-.99-2.15-2.8-2.96-3.61-1.8-1.8-5.46-3.36-5.86-5.89-.62-3.95,1.87-6.47,5.82-5.81,2.68.45,4.71,3.71,6.83,5.14.02-2.98-.19-8.03,2.66-9.79,3.04-1.88,6.91-.42,7.49,3.21.28,1.72-.66,3.71-.75,5.42-.2,4.08.17,8.88,1.26,12.82.13.48-.09,1.16.61,1.02,3.37-10.25,9.21-20.51,15.78-29.06,4.89-6.36,10.63-12.58,18.5-15.08h4.23Z"/>
      <path class="cls-1" d="M62.93,165.68c.71.07.74-1.15.9-1.68.51-1.79,1.22-4.78,1.39-6.6.46-4.78-2.29-15.63,5.41-14.72,4.6.54,4.6,6.77,4.51,10.32,3.37-1.99,7.25-7,11.3-3.08,5.16,5.01-4.74,10.01-7.78,13.41-.59.66-4.91,6.14-4.45,6.58,8.16-3.21,16.57-5.92,25.27-7.36,17.1-2.84,41.26-3.96,32.37,21.1-3.47,9.77-12.73,20.51-22.25,24.71-16.35,7.21-36.89.34-48-12.95l10.74-24.08-7.04,3.28-1.65-7.04-10.8,23.01c-8.22,1.64-18.06-2.01-25.09-6.39-17.92-11.15-22.52-30.52-14.68-49.82,16.08-39.57,43.87,10.7,49.53,29.06.23.74.36,1.48.33,2.25Z"/>
      <path class="cls-6" d="M47.9,200.44c.55.51-3.72,9.73-4.71,10.55-6.63,5.43-23.57,7.21-31.55,4.81-17.65-5.31-12.51-25.39-2.48-35.55,9.25,11.64,23.78,19.52,38.74,20.19Z"/>
      <path class="cls-3" d="M136.89,90.5l-4.35-10.67c13.19.22,26.66-5.33,36.41-14.08,1.25-1.12,3.02-2.69,3.52-4.24,6.92,6.51,11.9,21.15,5.61,29.34-9.08,11.83-30.35,6.46-41.18-.35Z"/>
      <path class="cls-4" d="M98.15,220.63c-2.14,21.49-20.07,34.47-36.35,14.51-3.07-3.77-9.28-15.25-9.22-19.93.02-1.13,3.12-8.01,3.87-9.28.27-.44.4-.95,1.06-.8.37.08,4.62,4.27,5.72,5.08,5.66,4.15,19.32,10.41,26.22,10.41h8.69Z"/>
      <path class="cls-5" d="M81.82,97.21c15.05,2.12,30.75-3.78,42.03-13.62l3.84,10.16c-2.55,12.35-14.86,30.46-29.15,28.76-10.39-1.24-16.87-15.92-16.72-25.3Z"/>
    </g>
  </g>
</svg>