<?xml version="1.0" encoding="UTF-8"?>
<svg id="Layer_2" data-name="Layer 2" xmlns="http://www.w3.org/2000/svg" viewBox="0 0 24.27 26.39">
  <defs>
    <style>
      .cls-1 {
        fill: #122618;
        stroke: #fff;
        stroke-miterlimit: 10;
        stroke-width: .24px;
      }
    </style>
  </defs>
  <g id="Layer_19" data-name="Layer 19">
    <path class="cls-1" d="M16.32.12c2.12.32,3.08,2.01,3.59,3.92,2.21,1.33,4.49,2.29,4.22,5.35l-1.57,8.3c.38.08.83.45.93.83.08.29.08,1.57.03,1.9-.08.56-.66.93-1.17,1.03.08,1.06.36,2.1.36,3.16-.15.88-.9,1.62-1.81,1.67H3.27c-1.03-.14-1.81-1.08-1.71-2.12l.36-2.7c-.88-.21-1.18-.66-1.23-1.53s-.03-1.98,1.02-2.23L.14,9.38c-.27-3.06,2.01-4.01,4.22-5.35.48-1.81,1.52-3.7,3.59-3.92h8.38ZM16.62,2.87l.56-1.35c-.02-.16-.97-.36-1.14-.37-2.46-.23-5.22.16-7.71,0-.18,0-1.23.23-1.24.38l.56,1.27.12.08h8.85ZM6.31,2.26c-.09-.02-.1.03-.14.08-.19.21-.76,1.62-.8,1.91-.01.07-.03.14,0,.21l5.37,12.36.92-2.25L6.31,2.26ZM11.52,17.64h1.69l1.83-4.22c.35-.51,1.11-.16.92.46l-1.62,3.77h7.15l1.63-8.41c.07-.83-.18-1.66-.71-2.29-.34-.4-2.02-1.52-2.52-1.72-.06-.03-.12-.05-.19-.04l-2,4.66c-.33.51-1.07.14-.93-.42l2.16-5.05c-.16-.5-.33-1.06-.55-1.54-.05-.12-.26-.58-.39-.58l-6.46,15.37ZM16.17,3.9h-8.02l4.04,9.4,3.98-9.4ZM2.79,17.64h7.15L4.5,5.17c-.64.4-1.33.74-1.94,1.17-.97.68-1.48,1.62-1.4,2.83l1.63,8.45ZM1.91,18.72c-.08.03-.12.09-.14.17-.03.17-.03,1.16,0,1.33.03.14.15.17.28.18h20.13c.14,0,.3-.02.33-.18.03-.17.03-1.16,0-1.33-.01-.05-.03-.1-.07-.13l-20.53-.04ZM8.76,21.41H2.99l-.41,2.89c.03.51.33.89.85.95h3.63s1.71-3.83,1.71-3.83ZM11.57,21.41h-1.66l-1.66,3.83h1.61l1.71-3.83ZM11.06,25.24h9.88s.3-.13.35-.16c.26-.17.35-.44.39-.74l-.42-2.93h-8.5s-1.71,3.82-1.71,3.82Z"/>
  </g>
</svg>