<?xml version="1.0" encoding="UTF-8"?>
<svg id="Layer_2" data-name="Layer 2" xmlns="http://www.w3.org/2000/svg" viewBox="0 0 11.59 59.21">
  <defs>
    <style>
      .cls-1 {
        fill: #122618;
      }
    </style>
  </defs>
  <g id="Layer_14" data-name="Layer 14">
    <path class="cls-1" d="M2.01,13.38c-.99-.18-1.74-1.35-1.85-2.3-.23-1.92-.19-6.32-.02-8.29.08-.91.36-1.67,1.15-2.17C2.27,0,3.27.3,4.37.24c1.72-.09,4.57-.41,6.21-.14.34.06.71.25.77.62-.26,4.37.52,9.07.12,13.4-.29,3.11-3.78,7.31-3.83,9.29-.27,11.12.52,22.34.24,33.48-.77,3.51-5.67,2.83-5.66-.68.48-10.54-.7-21.48-.15-31.97.11-2.15.55-3.44,1.41-5.37.8-1.81,2.06-3.55,2.47-5.49-1.18-.15-2.83.2-3.94,0ZM5.82,1.76h-3.39c-.64,0-.7,1.35-.62,1.8h2.56c.59,0,.59,1.52,0,1.52H1.81v2.35h2.42c.85,0,.73,1.66,0,1.66H1.81v2.14c0,.14.48.62.62.62h3.39V1.76ZM9.83,1.76h-2.49l.13,12.37c-.49,2.48-3.72,6.34-3.72,8.73v14.74h2.49c-.03-1.08.03-2.17,0-3.26-.09-3.47-.44-7.32-.14-10.79.21-2.42,2.04-4.76,3.02-6.94,1.28-2.84.73-5.08.71-8-.02-2.28.02-4.57,0-6.86ZM6.23,39.26h-2.49l.14,3.6h2.14l.21-.21v-3.39ZM6.23,44.38h-2.35v3.46h2.35v-3.46ZM6.23,49.5h-2.35v7.47s.17-.02.22.05c.31.39.48.66,1.08.64,1.3-.06,1.22-1.47,1.19-2.42l-.14-5.74Z"/>
  </g>
</svg>