<?xml version="1.0" encoding="UTF-8"?>
<svg id="Layer_2" data-name="Layer 2" xmlns="http://www.w3.org/2000/svg" viewBox="0 0 16.78 58.03">
  <defs>
    <style>
      .cls-1 {
        fill: #102516;
      }
    </style>
  </defs>
  <g id="Layer_14" data-name="Layer 14">
    <path class="cls-1" d="M2.09,1.49c1-.63,2.37-.8,3.36-.06.15-.11.26-.3.41-.4.42-.29,5.5.09,6.4-.05.41-.2.58-.51,1.01-.74,1.44-.74,3.29.33,3.41,1.94-.26,3.85.34,8.17-.02,11.97-.08.89-.35,1.37-.73,2.15-1.34,2.7-2.99,5.26-4.16,8.04l-.07,31.73c-.38,1.73-2.18,2.44-3.7,1.61l-.7-.7-.35-1.05.06-31.67.31-1.2,4.04-7.56-5.16-.04c-.42.08-.71.39-1.14.49-1.39.31-2.82-.69-2.91-2.14V5.64C1.89,4.77-.39,4.88.06,3.51L2.09,1.49ZM2.08,3.64c.76.38,1.44.78,1.6,1.68l.03,8.49c.37.89,1.53.87,1.68-.12V3.74c-.11-.71-.91-1.34-1.63-1.27-.12.01-.71.2-.76.25l-.92.92ZM6.95,2.6c-.04.07-.12,1.57.16,1.59l4.76-.05c.07-.07.11-1.35.06-1.46-.04-.1-.07-.17-.19-.19h-4.56c-.1-.02-.18.02-.23.11ZM6.94,5.77l.04,1.64,4.93-.04-.04-1.64-4.93.04ZM13.55,1.98c-.07.11-.09.25-.09.38l-.09,12.48c-1.42,3.27-3.51,6.25-4.82,9.56l-.06,31.29c.17,1.14,1.69,1.05,1.72-.12l.07-31.54c1.26-3.45,3.71-6.52,4.88-10l.02-11.65c-.1-.86-1.13-1.14-1.61-.38ZM6.93,9.06l-.02,1.59h5c-.04-.25.08-1.53-.06-1.62l-4.93.04ZM6.91,12.23c.05.32-.13,1.54.12,1.69l4.63.03.23-.13.02-1.59h-5Z"/>
  </g>
</svg>