<?xml version="1.0" encoding="UTF-8"?>
<svg id="Layer_2" data-name="Layer 2" xmlns="http://www.w3.org/2000/svg" viewBox="0 0 34.23 28.7">
  <defs>
    <style>
      .cls-1 {
        opacity: .74;
      }

      .cls-2 {
        fill: #e4bd22;
      }
    </style>
  </defs>
  <g id="Layer_5" data-name="Layer 5">
    <g class="cls-1">
      <path class="cls-2" d="M34.2,3.62c.04.3.03.97,0,1.27-.03.25-.17.73-.25.99-.42,1.38-1.29,2.64-2.28,3.66.22.29.54.51.79.79,2.03,2.3,2.21,5.72.39,8.2-.13.18-.6.78-.77.83-.31.1-.66-.09-.69-.42-.03-.36.55-.85.77-1.18,2.75-4.13-.91-9.49-5.7-8.48.11.15.32.24.47.37,2.97,2.67,3.22,6.96.3,9.79-.07.07-.8.59-.7.67.84.11,1.65.11,2.47-.1.4-.1,1.19-.6,1.43-.03.18.43-.15.64-.48.78-1.14.51-2.7.52-3.9.26-.24-.05-.62-.24-.82-.25-.34-.02-.97.33-1.36.35.09,1.04.06,2.05-.26,3.05-1.76,5.56-9.54,6.15-12.09.91-.23-.47-1.1-2.53.09-2.3.4.08.41.76.52,1.08,2.3,6.46,11.57,4.09,10.72-2.44-.72-5.53-8.55-6.5-10.59-1.26-.17.44-.28,1.71-1.04,1.28-.37-.21-.21-.65-.13-.98.57-2.34,2.83-4.38,5.22-4.69l-.07-.6c-4.6-.01-8.83-1.64-12.4-4.45C1.55,8.92-1.14,5.26.51,2.26,1.97-.39,5.37-.28,7.87.61c1.76.63,3.12,1.8,4.92,2.36,2.4.75,5.54.78,7.97.19,3.46-.84,5.64-3.7,9.66-3.07,1.77.27,3.56,1.67,3.78,3.53ZM28.4,8.23c.59.04,1.19.23,1.73.44.2.08.55.35.73.27.26-.12,1.18-1.4,1.37-1.71,2.6-4.26-.39-7.13-4.87-5.87-1.89.53-3.28,1.76-5.07,2.41-2.86,1.03-6.79,1.1-9.7.22-2.24-.68-3.9-2.25-6.2-2.75C2.37.35-.33,2.88,1.75,6.81c1.68,3.17,6.42,5.89,9.81,6.75,1.53.39,3.11.55,4.68.62.12-.95.35-1.92.87-2.73-2.87-.02-5.69-.43-8.32-1.59-1.4-.62-3.19-1.67-4.36-2.65-.37-.31-1.56-1.24-1.07-1.74.53-.54,1.15.48,1.54.81,3.4,2.92,7.81,4.19,12.25,4.18.11,0,.63-.06.72-.09.13-.04.58-.58.75-.72,1.58-1.31,3.63-1.74,5.64-1.31.24.05.83.31,1,.27,1.22-.25,3.08-1.49,4.04-2.31.37-.32.86-1.11,1.35-.95.7.23.2.85-.11,1.19-.61.65-1.43,1.16-2.14,1.7ZM17.32,15.64c2.8.02,5.3,1.78,6.24,4.41.13.14.75-.07.94-.13,4.03-1.32,5.1-6.64,1.86-9.42-3.95-3.39-9.88.08-9.04,5.14Z"/>
      <path class="cls-2" d="M14.49,20.67c.87-.19,1.72,1.06,1.75,1.83.01.34-.32.19-.54.14-.41-.1-.84-.29-1.12-.62s-.71-1.22-.09-1.35Z"/>
      <path class="cls-2" d="M16.96,18.33c.44-.04.67.74.69,1.08.04.64-.26,1.16-.64,1.64-.51-.41-.78-1.17-.69-1.83.04-.31.28-.86.64-.89Z"/>
      <path class="cls-2" d="M30.51,12.45c.55-.16.83.75.82,1.16,0,.46-.35,1.28-.77,1.5-.49-.6-.83-1.51-.45-2.25.05-.1.3-.38.4-.41Z"/>
      <path class="cls-2" d="M17.49,23.26c.1-.03.88.23,1.02.3.84.44,1.47,2.06.2,1.73-.61-.16-1.07-.79-1.23-1.37-.04-.15-.18-.61,0-.66Z"/>
      <path class="cls-2" d="M18,21.67c.23-.28.99-.39,1.34-.35.21.03,1.28.5,1.24.69-.56.56-1.53.86-2.27.48-.3-.15-.57-.5-.31-.82Z"/>
      <path class="cls-2" d="M27.91,3.17c.52-.03.7.61.24.97-3.07,2.43-8.6,3.24-12.41,3.09-.89-.03-2.48-.13-3.32-.36-.7-.19-.73-.9-.01-1.05,4.65.77,9.56.51,13.78-1.71.33-.17,1.46-.94,1.71-.95Z"/>
      <path class="cls-2" d="M10.62,5.44c.36.35.07.89-.48.85-.76-.06-3.07-1.25-3.79-1.68-.35-.21-1.14-.56-1.01-1.04.25-.92,1.46.15,1.92.4.41.22.87.46,1.29.65.37.17,1.92.68,2.07.83Z"/>
      <path class="cls-2" d="M23.57,10.85c.44-.04.67.74.69,1.08.04.64-.26,1.16-.64,1.64-.5-.41-.79-1.18-.69-1.83.04-.3.3-.86.64-.89Z"/>
      <path class="cls-2" d="M22.31,13.65c.14.24-.68.63-.86.69-.55.18-2.09.05-1.75-.75s2.06-.44,2.61.06Z"/>
      <path class="cls-2" d="M22.9,14.78c.27-.05.68,1.1.69,1.36.11,1.81-1.59,1.64-1.33-.19.03-.21.44-1.14.64-1.17Z"/>
    </g>
  </g>
</svg>