<?xml version="1.0" encoding="UTF-8"?>
<svg id="Layer_2" data-name="Layer 2" xmlns="http://www.w3.org/2000/svg" viewBox="0 0 254.5 92.7">
  <defs>
    <style>
      .cls-1 {
        opacity: .89;
      }

      .cls-2 {
        fill: none;
        stroke: #878787;
        stroke-miterlimit: 10;
      }

      .cls-3 {
        font-family: Poppins-Light, Poppins;
        font-size: 7.56px;
        font-weight: 300;
        letter-spacing: .24em;
      }

      .cls-3, .cls-4 {
        fill: #878787;
      }
    </style>
  </defs>
  <g id="Layer_4" data-name="Layer 4">
    <g class="cls-1">
      <g>
        <path class="cls-4" d="M40.75,72.57h-22.65v-1.29h.73c1.34,0,2.5-.48,3.47-1.45.97-.97,1.45-2.15,1.45-3.55V22.43c0-1.4-.48-2.58-1.45-3.55-.97-.97-2.12-1.45-3.47-1.45h-.73v-1.29h22.65c4.35,0,8.32.81,11.89,2.42,3.57,1.61,6.45,3.75,8.63,6.41,2.18,2.66,3.87,5.67,5.08,9.03,1.21,3.36,1.83,6.81,1.85,10.36.03,3.55-.55,7-1.73,10.36-1.18,3.36-2.88,6.37-5.08,9.03-2.2,2.66-5.09,4.8-8.67,6.41-3.57,1.61-7.56,2.42-11.97,2.42ZM40.75,17.43h-.73c-1.4,0-2.58.48-3.55,1.45s-1.45,2.15-1.45,3.55v43.85c0,1.4.48,2.58,1.45,3.55.97.97,2.15,1.45,3.55,1.45h.73c2.69,0,5.13-.78,7.34-2.34,2.2-1.56,3.98-3.59,5.32-6.09,1.34-2.5,2.38-5.36,3.1-8.59.73-3.22,1.09-6.53,1.09-9.92s-.36-6.69-1.09-9.92c-.73-3.22-1.76-6.09-3.1-8.59-1.34-2.5-3.12-4.53-5.32-6.09-2.2-1.56-4.65-2.34-7.34-2.34Z"/>
        <path class="cls-4" d="M120.24,71.28h.48v1.29h-7.09c-5.43,0-9.3-3.09-11.61-9.27l-6.37-17.01h-15.8l-5.8,19.99c-.97,3.33.67,5,4.92,5h.73v1.29h-12.66v-1.29h1.21c1.24,0,2.18-.43,2.82-1.29.64-.86,1.18-2.1,1.61-3.71l12.74-43.85c.38-1.29,0-2.44-1.13-3.47-1.13-1.02-2.39-1.53-3.79-1.53h-.73v-1.29h10.08c3.76,0,6.53,2.39,8.3,7.17l16.45,44.01c.48,1.24,1.22,2.2,2.22,2.9.99.7,2.14,1.05,3.43,1.05ZM80.17,45h14.99l-8.46-22.57-6.53,22.57Z"/>
        <path class="cls-4" d="M108.47,17.43v-1.29h7.09c5.43,0,9.3,3.09,11.61,9.27l15.32,40.87,5.72-19.91-9.35-24.99c-.43-1.24-1.16-2.2-2.18-2.9-1.02-.7-2.18-1.05-3.47-1.05h-.4v-1.29h7.09c5.37,0,9.22,3.09,11.53,9.27l15.32,40.87,8.38-28.62c.81-2.53,1.15-5.01,1.05-7.46-.11-2.44-.39-4.42-.85-5.93-.46-1.5-.94-3.04-1.45-4.59-.51-1.56-.74-2.74-.69-3.55h9.43c-1.51,5.11-3.88,13.26-7.13,24.47-3.25,11.21-5.71,19.76-7.38,25.68-.38,1.29-.01,2.45,1.09,3.47,1.1,1.02,2.38,1.53,3.83,1.53h.73v1.29h-10.16c-3.76,0-6.53-2.39-8.3-7.17l-6.37-17.01-5.16,17.9c-.38,1.29,0,2.45,1.13,3.47,1.13,1.02,2.39,1.53,3.79,1.53h.73v1.29h-10.08c-3.76,0-6.53-2.39-8.3-7.17l-16.45-44.01c-.48-1.24-1.22-2.2-2.22-2.9-1-.7-2.14-1.05-3.43-1.05h-.48Z"/>
        <path class="cls-4" d="M185.86,72.57v-1.29h.73c1.34,0,2.5-.48,3.47-1.45.97-.97,1.45-2.15,1.45-3.55V22.43c0-1.4-.44-2.58-1.33-3.55-.89-.97-2-1.45-3.35-1.45h-.73v-1.29h7.17c2.58,0,4.66.74,6.25,2.22,1.58,1.48,3.35,3.83,5.28,7.05l24.67,40.71V22.43c0-1.4-.48-2.58-1.45-3.55-.97-.97-2.15-1.45-3.55-1.45h-.73v-1.29h12.66v1.29h-.73c-1.34,0-2.5.48-3.47,1.45-.97.97-1.45,2.15-1.45,3.55v43.85c0,1.4.48,2.58,1.45,3.55s2.12,1.45,3.47,1.45h.73v1.29h-10.08c-1.72,0-3.16-.56-4.31-1.69-1.16-1.13-2.49-2.95-3.99-5.48l-25.15-41.6v42.48c0,1.4.48,2.58,1.45,3.55s2.12,1.45,3.47,1.45h.73v1.29h-12.66Z"/>
      </g>
      <path class="cls-2" d="M66.76,86.1H8.8c-4.58,0-8.3-3.38-8.3-7.55V8.05C.5,3.88,4.22.5,8.8.5h236.9c4.58,0,8.3,3.38,8.3,7.55v70.5c0,4.17-3.72,7.55-8.3,7.55h-65.95"/>
      <text class="cls-3" transform="translate(70.49 88.43)"><tspan x="0" y="0">BY HUSH AND BLOOM</tspan></text>
    </g>
  </g>
</svg>