<?xml version="1.0" encoding="UTF-8"?>
<svg id="Layer_2" data-name="Layer 2" xmlns="http://www.w3.org/2000/svg" viewBox="0 0 28.77 35.47">
  <defs>
    <style>
      .cls-1 {
        fill: #27113a;
        opacity: .69;
      }
    </style>
  </defs>
  <g id="Layer_13" data-name="Layer 13">
    <path class="cls-1" d="M26.15,3.09c.82.03,2.51-.24,2.61,1.09.04.58-.72,2.36-1.06,2.84-.81,1.12-2.18,1.64-3.4,1.07l-.14.98.72,2.17c.98.1,2.92-.44,2.96,1.24,0,.35-.77,2.32-.97,2.7-.85,1.56-2.68,2.3-4.19,1.53.03.29-.15.65-.15.91,0,.19.26.57.34.81.19.57.33,1.18.52,1.75.11.08,1.75-.03,2.08.01.8.09,1.36.75,1.21,1.66-.09.57-.94,2.62-1.28,3.08-1.15,1.6-2.97,2.15-4.64,1.19-.28,1.08-.83,2.05-1.35,3.01.53-.14,1.06-.31,1.6-.38,1.34-.17,2.79.02,4.04.61,1.84.87,1.82,1.89.19,3.08-2.14,1.57-5.1,2.18-7.39.69-.4-.26-.71-.64-1.09-.84-.85.56-1.71,1.46-2.57,1.97-.3.17-.75.46-1.02.04-.56-.9,1.07-1.48,1.49-1.96-1.41-2-2.26-4.7-1.67-7.24.21-.88.49-1.52,1.44-1.21.57.19,1.6,1.7,1.91,2.3.58,1.12.97,2.44.94,3.74,1.04-1.06,1.74-2.51,2.34-3.92-2.41-.17-3.83-2.57-3.62-5.14.19-.71-.13-1.55.36-2.13.93-1.1,2.32.37,3.35.58.55-.63.98-1.42,1.68-1.87l.14-1.05c-1.6.2-3.11-1.59-3.26-3.28-.05-.56-.06-1.9,0-2.44.06-.44.37-.93.77-1.04.84-.23,1.67.54,2.45.81l1.51-1.69.16-.97c-1.47.13-2.73-1.49-2.84-3.04-.05-.69-.12-2.36.4-2.8.83-.7,1.71.34,2.53.45.38-.36.83-1.25,1.32-1.38,1.19-.31,1.31,1.18,1.57,2.09ZM23.96,6.33c.63-.05,1.01-.7,1.16-1.33.23-.95-.08-1.64-.32-2.53-1.03.91-1.84,2.57-.84,3.86ZM21.47,3.02v1.62c0,.2.21.78.33.98.17.3.48.64.81.72-.28-.89-.32-1.91,0-2.8l-1.14-.52ZM27.56,4.45h-1.2c-.03.98-.41,1.92-1.06,2.57,1.34.1,1.86-1.41,2.27-2.57ZM23.38,10.14c-.06-.07-1.16,1.38-1.23,1.51-.55,1.01-.62,2.53.29,3.31,1.93-.74,1.52-3.13.94-4.82ZM19.42,10.85v2.18c0,.13.24.75.32.91.22.46.73,1.1,1.24,1.06-.48-1.16-.46-2.34-.07-3.52l-1.49-.63ZM26.64,12.51h-1.63c.07,1.21-.46,2.35-1.27,3.13-.03.17.07.12.18.12,1.62.06,2.31-1.84,2.73-3.25ZM21.75,18.76c-1.05,1.12-2.02,2.22-1.91,4,.05.77.41,1.2.82,1.77.76-.39,1.27-.83,1.56-1.73.48-1.51-.07-2.62-.46-4.03ZM17.22,19.63v2.73c0,.11.31.83.4.98.32.58.94,1.24,1.59,1.23-.71-1.24-.6-2.78-.15-4.11l-1.84-.84ZM25.58,21.53l-1.97-.07c-.13.3-.06.62-.11.94-.21,1.17-.68,2.12-1.53,2.84.59.22,1.15.02,1.68-.3,1.21-.74,1.38-2.12,1.94-3.41ZM15.66,31.58c1.12-2.18.06-4.77-1.45-6.33-.1,0-.24,1.06-.25,1.22-.09,1.75.65,3.83,1.7,5.1ZM25.16,30.79c-2.34-1.31-5.27-.96-7.44.59,1.81,2.05,5.08,1.45,6.99-.1.09-.08.52-.37.44-.49Z"/>
    <path class="cls-1" d="M8.31,1.83c.77,0,1.91-.72,2.53.07.16.21.3.57.29.85-.02.43-.28,1.65-.4,2.09-.42,1.48-1.86,2.66-3.28,2.31.04.31-.06.77.01,1.05.02.08.42.6.51.77.19.35.35.72.54,1.07.8.07,1.95-.71,2.69-.16.27.2.51.74.5,1.1,0,.42-.29,1.79-.41,2.24-.48,1.81-2.12,3.2-3.85,2.71.04.31-.06.77.01,1.05.03.13.24.27.33.43.33.59.6,1.22.93,1.81l2.43-.5c.61.08,1.12.67,1.12,1.37,0,.53-.39,2.39-.57,2.93-.61,1.86-2.25,3.05-4.02,2.66-.12-.03-.09-.03-.09.1.05,1.19,1.02,3.51,1.6,4.55.9,1.6,2.2,2.81,3.32,4.2.18.53-.17,1.08-.69.93-.93-.86-1.72-1.94-2.58-2.9-.73.31-1.4.71-2.19.85-1.71.31-3.45-.41-4.86-1.44-.65-.48-2.1-1.82-2.18-2.71-.1-1.01.79-1.26,1.48-1.42,2.01-.47,3.97-.06,5.74,1.07-.35-1.04-.72-2.12-.78-3.24-.05-.06-1.04.13-1.23.13-1.24-.02-2.54-1.1-3.08-2.31-.28-.62-.75-2.8-.72-3.47s.53-1.24,1.12-1.29c.42-.04,2.32.61,2.42.53.26-.55.53-1.12.83-1.65.15-.26.43-.49.46-.75.03-.28-.03-.62,0-.91-1.43.4-3-.55-3.63-2-.24-.55-.69-2.68-.61-3.24.07-.47.51-.96.94-1.01s2.1.46,2.22.38c.2-.42.41-.84.62-1.25.33-.63.6-.77.45-1.67-1.61.29-2.96-.89-3.38-2.59-.13-.53-.38-1.79-.24-2.27.4-1.32,1.85-.48,2.69-.47.47-.69.82-2.11,1.85-1.75.45.16.91,1.33,1.14,1.77ZM7.28,5.14c.81-1.06.18-2.64-.44-3.61-.84,1.19-1.33,3.03,0,4.03.09-.17.35-.3.44-.42ZM4.89,3.03l-1.13-.16c.15,1.29.37,2.71,1.7,3-.55-.87-.63-1.81-.57-2.85ZM9.92,2.87l-1.13.16c.07,1.05-.06,1.95-.57,2.85,1.33-.34,1.5-1.73,1.7-3ZM6.84,9.44c-1.06,1.46-1.66,3.6-.06,4.89,1.77-1.08,1.07-3.46.06-4.89ZM5.46,14.73c-.68-1-.96-2.16-.74-3.4l-1.53-.39c.1,1.65.51,3.64,2.27,3.8ZM8.22,14.73c1.74-.16,2.14-2.17,2.27-3.8l-1.53.39c.18,1.26-.07,2.39-.74,3.4ZM6.87,18.14c-.72,1.22-1.41,2.27-1.27,3.83.09.94.55,1.58,1.23,2.09.95-.67,1.33-1.7,1.23-2.94-.09-1.15-.81-1.96-1.2-2.98ZM4.54,20.43l-1.98-.4c.2.76.23,1.57.43,2.33.31,1.14,1.35,2.23,2.47,2.1-.99-1.03-1.13-2.61-.92-4.03ZM11.06,20.03l-1.91.4c.19,1.42,0,2.97-.93,4.02,2.18.06,2.7-2.48,2.83-4.43ZM8.43,31.5c.03-.12-.03-.13-.07-.2-.19-.3-1.25-1.03-1.58-1.24-1.73-1.05-3.65-1.5-5.57-.86.76,1.08,1.78,1.94,2.93,2.47,1.5.69,2.85.71,4.3-.17Z"/>
  </g>
</svg>