<?xml version="1.0" encoding="UTF-8"?>
<svg id="Layer_2" data-name="Layer 2" xmlns="http://www.w3.org/2000/svg" viewBox="0 0 29.2 29.21">
  <defs>
    <style>
      .cls-1 {
        fill: #27113a;
        opacity: .69;
      }
    </style>
  </defs>
  <g id="Layer_13" data-name="Layer 13">
    <path class="cls-1" d="M19.88,6.35c3.71-1.31,6.82,1.78,8.61,4.66.17.27.64.99.7,1.26.07.36-.21,1.22-.33,1.6-.59,1.98-1.57,4.21-3.28,5.46.05,1.21-.08,2.45-.56,3.58-.44,1.01-.94,1.43-1.99,1.75-2.57.79-5.04.14-7.12-1.45-.32.96-.6,1.94-.76,2.95-.1.61-.09,1.3-.19,1.88-.18,1.01-1.22,1.52-2.09.92-.7-.48-.53-1.57-.64-2.33-.17-1.23-.51-2.42-.88-3.6-.09-.02-.1.02-.15.06-.27.19-.56.5-.84.7-1.26.93-3.86,2.52-5.33,1.37-1.58-1.23-1.42-3.5-.89-5.22-1.58-.92-2.59-2.65-3.31-4.29C.6,15.15.06,13.93,0,13.44c-.05-.46.46-1.36.7-1.79,1.69-3.1,5-6.63,8.85-4.77.18-2.21,1.23-4.24,2.85-5.73.28-.26,1.3-1.1,1.64-1.15.49-.08,1.28.4,1.71.66,2.07,1.26,3.62,3.3,4.14,5.69ZM19.22,6.76c-.51-2.74-2.45-5-5.01-6.04-1.75,1.06-3.15,2.81-3.68,4.81-.16.61-.21,1.18-.27,1.81,1.07,1.12,1.11,2.57,1.94,3.89.38.61.89,1.23,1.45,1.67.02-2.3-.59-4.56-1.43-6.68-.02-.38.43-.54.66-.24s.6,1.53.73,1.94c.5,1.65.69,3.04.76,4.76,0,.07-.04.22.06.21.33-.97.56-1.98.65-3,.02-.27.05-.62.06-.89.01-.4-.15-2.01,0-2.2.19-.27.58-.09.64.19.03.14.06.48.07.64.12,1.78-.13,3.72-.71,5.4.33.16.62-.25.83-.48.57-.63,1.09-1.56,1.38-2.36.46-1.29.47-2.7,1.88-3.44ZM16.56,14.25h.92c.58,0,2.07-.64,2.64-.92.24-.12.8-.54,1.02-.5.28.05.36.37.23.6-.12.2-1.86.98-2.18,1.09l-1.44.43c1.55.01,2.05,1.66,2.94,2.61.79.84,2.38,1.69,3.55,1.53,1.75-.24,3-2.82,3.55-4.29.2-.54.62-1.69.69-2.23.03-.24-.4-.88-.55-1.12-1.47-2.4-4.33-5.51-7.47-4.52-2.28.71-1.9,2.64-2.79,4.4-.38.76-.92,1.45-1.51,2.05l.09.15c1.76-.59,3.26-1.75,4.51-3.08.21-.22.76-1.19,1.1-.63.2.33-.23.73-.45.98-1.46,1.67-2.69,2.36-4.65,3.31-.07.03-.18.03-.19.14ZM11.33,11.22c-.15-.4-.37-.77-.52-1.17-.52-1.37-.58-2.25-2.21-2.77-2.9-.93-5.48,1.8-6.85,4.01-.18.29-1.05,1.81-1.03,2.03.98,2.97,3.3,8.5,7.2,5.33,1.32-1.07,1.34-2.57,2.43-3.74l.39-.29c-1.59.05-3.42.44-4.68,1.46-.3.24-1.08,1.38-1.4.68-.16-.34.72-1.07.98-1.27,1.8-1.38,3.83-1.55,6.02-1.64.07,0,.22.04.21-.06-2.28-.83-4.77-.73-7.03.12-.73-.25-.35-.63.18-.84,1.52-.6,3.67-.72,5.27-.46,1.04.17,2,.54,2.95.99-1.29-1.41-3.27-2.37-5.09-2.89-.37-.11-1.53-.14-1.37-.69.12-.4.72-.2,1.01-.14.89.18,1.88.55,2.7.92.11.05.82.46.85.43ZM14.84,16.86c.48-.97,2.05-3.3-.2-3.08-.72.07-1.5.48-1.18,1.34.04.1.8,1.34.88,1.44.13.16.34.2.5.3ZM24.87,19.71c-1.89.55-3.98-.68-5.13-2.14-.7-.89-.93-1.84-2.26-1.95-.29-.02-.84,0-1.13.06-.2.04-.26.43-.35.6-.14.26-.31.51-.45.77.74,0,1.27-.55,2.03-.46,1.47.18,1.66,2.04,1.16,3.15-.74,1.67-2.64.72-3.73-.02l.02,1.58c1.87,2.4,5.27,3.81,8.21,2.53,1.41-.62,1.59-2.75,1.62-4.11ZM13.17,18.17c-.04-.45.1-.9.41-1.23-.31-.43-1.25-1.21-1.81-1.21-.87,0-1.26,1.8-.8,2.35.52.62,1.53-.03,2.2.09ZM12.28,19c-.72.21-1.38.12-1.87-.47s-.37-1.04-.3-1.72c0-.06.09-.19-.03-.18-.38,1.13-1.04,2.13-2.02,2.81s-2.09,1.1-3.26.81c-.35,1.23-.58,2.9.27,3.97.52.65.95.74,1.75.57,1.2-.25,2.88-1.32,3.8-2.14.17-.15.99-.94.94-1.12-.52-.53-.45-1.3,0-1.85l.71-.68ZM17.9,19.75c.43-.41.5-1.87.02-2.26-.55-.45-1.21.06-1.8.21-.24.06-.5.1-.75.11.11.44.03.81-.05,1.24.57.34,1.96,1.29,2.58.7ZM14.17,17.4c-.41.12-.32,1.34.06,1.59.33.22.47-.42.47-.67s-.17-1.02-.53-.92ZM14.3,19.77c-.39-.06-.64-.29-.86-.6-.46.14-1.41.85-1.49,1.35-.14.81,1.5,1.36,2.11,1.1.45-.19.18-1.42.25-1.85ZM12.11,22.03l-.23.49c.51,1.25.86,2.6,1.05,3.94.07.48.04,1.15.14,1.58.12.56,1,.61,1.15-.01.08-.33.04-.85.09-1.21.19-1.42.54-2.79.99-4.15l-.61-.63c-.7.73-1.78.33-2.58,0Z"/>
  </g>
</svg>