<?xml version="1.0" encoding="UTF-8"?>
<svg id="Layer_2" data-name="Layer 2" xmlns="http://www.w3.org/2000/svg" viewBox="0 0 30.3 23.32">
  <defs>
    <style>
      .cls-1 {
        fill: #27113a;
        opacity: .69;
      }
    </style>
  </defs>
  <g id="Layer_13" data-name="Layer 13">
    <g>
      <path class="cls-1" d="M30.3,15.09c-.2.63-.49,1.01-1.05,1.35-.14.08-.31.1-.45.2-.43.27-.73,1.32-1.02,1.82-2.29,3.91-7.71,5.19-11.95,4.8-.81-.07-2.05-.48-2.72-.48-.59,0-1.61.35-2.31.42-1.27.12-2.54.02-3.77-.31-.71-.19-1.84-.84-2.49-.74-.33.05-.66.29-1.03.33-1.72.2-3.08-1.14-2.74-2.86.14-.71.47-.84.23-1.67-.28-.96-.69-1.67-.87-2.74C-.67,10.39,2.38,4.65,5.97,1.56c4.66-4,12.6.43,15.23,4.98,2.72.64,5.44,2.21,6.76,4.75.18.34.39,1.07.59,1.3.17.2.55.28.77.42.5.3.78.76.97,1.3v.77ZM9.57,1.08c-2.21.21-4.04,1.84-4.54,3.98-1.28,5.52,4.2,11.75,9.33,13.03,5.55,1.38,9-2.41,7.44-7.85C20.39,5.31,14.88.56,9.57,1.08ZM17.63,19.35c-2.6.28-5.17-.6-7.33-1.99-3.72-2.39-6.92-7.06-6.4-11.66,0-.05.03-.2-.06-.12C1.72,8.6.31,12.45,1.4,16.14c.26.87.82,1.63.71,2.57-.05.43-.31.84-.34,1.26-.08,1.05.74,1.69,1.74,1.45.26-.06.56-.25.84-.29,1.12-.15,1.77.41,2.78.71,3.63,1.06,7.59-.31,10.51-2.49ZM14.97,22.13l2.87.18c3.29-.16,7.29-1.31,9.04-4.34.34-.59.55-1.49,1.03-1.93s1.43-.51,1.38-1.38c-.05-.75-.68-.76-1.15-1.1-.67-.48-.79-1.28-1.17-1.97-1.05-1.9-3-3.09-5-3.79,1.19,2.52,1.83,5.64.52,8.25-1.07,2.14-4.57,4.55-6.68,5.63-.28.14-.63.21-.83.44Z"/>
      <path class="cls-1" d="M3.89,13.03c.21-.04.4.05.51.23.21.35-.16.72.24,1s1.32-.01,1.24.72c-.1.91-1.75.33-2.16-.16-.35-.43-.52-1.66.16-1.79Z"/>
      <path class="cls-1" d="M4.57,18.32c-.55-.64-.32-2.22.51-1.72.58.35-.26,1.11.82,1.31.32.06.58-.09.78.29.13.25.02.6-.23.7-.52.22-1.52-.17-1.87-.58Z"/>
      <path class="cls-1" d="M8.77,18.44c.3.41,1.32.02,1.39.71.09.97-1.95.59-2.35-.38-.17-.43-.25-1.45.39-1.48.8-.04.4.91.57,1.15Z"/>
      <path class="cls-1" d="M25.13,17.41c.42.51-.54,1.39-.93,1.67s-2.16,1.28-2.01.13c.05-.42,1.1-.73,1.47-1.02.15-.11.32-.3.45-.44.19-.2.26-.54.64-.52.07,0,.33.13.38.18Z"/>
      <path class="cls-1" d="M17.46,5.72c1.14.19,1.79,1.22,2.31,2.16.45.82,1.1,1.98.48,2.85.95.88.7,2.38.25,3.46-.28.68-.59,1.08-1.38,1.13.04,1.01-1.09,1.42-1.9,1.62-.86.21-1.6.26-2.36-.24-.09-.06-.2-.24-.28-.25-.07-.01-.42.2-.59.22-.94.13-2.48-.76-3.24-1.31-.6-.43-1.12-.91-1.17-1.7-1.11-.1-1.76-1.15-2.25-2.04s-1.17-2.06-.53-2.96c-.92-.82-.72-2.16-.35-3.21.25-.72.6-1.41,1.48-1.33-.03-.57.2-.91.67-1.19.82-.5,2.34-.83,3.24-.43.18.08.54.41.63.44.08.02.54-.21.76-.23.89-.07,3.21,1.25,3.79,1.95.25.31.41.66.45,1.05ZM11.69,3.63c-.62-.55-2.18-.15-2.75.37.03.27.09.46.25.68.87,1.14,2.41,2.2,3.34,3.34l.18.09-.67-3.86c-.06-.19-.21-.49-.36-.62ZM13.8,8.21c.13.06.29.2.43.08.31-.46,2.12-1.91,2.21-2.3.13-.6-.69-1.07-1.12-1.34-.34-.21-1.71-.97-2.03-.92-.19.03-.24.21-.21.38l.73,4.1ZM7.79,5.15c-.29.09-.61,1.43-.63,1.74-.05.68.26,1.2.93,1.37.96.25,2.7.53,3.69.63.07,0,.08.07.16-.05l-3.31-3.32c-.2-.17-.57-.46-.85-.37ZM15.04,9.45l4.16.71c.13-.01.24-.06.26-.2.08-.41-.64-1.68-.89-2.07-.31-.5-.69-1.17-1.36-1.13l-2.34,2.28s.14.39.16.4ZM12.99,9.12c-.27.09.03.65.14.79.25.32,1.09.76.99.07-.06-.47-.65-.97-1.13-.87ZM7.67,9.29c-.33.12.17,1.11.27,1.32.26.55,1.13,2.17,1.84,2.04l2.34-2.28c.04-.15-.07-.37-.21-.42-1.42-.19-2.82-.56-4.24-.66ZM19.56,11.5c-.08-.08-.24-.16-.33-.23l-4.15-.74,3.4,3.43c.14.18.67.4.85.28.07-.04.37-.9.41-1.04.14-.59.28-1.23-.18-1.71ZM12.87,11.07c-.33.43-2.19,1.97-2.28,2.34-.14.64.72,1.12,1.18,1.4.35.22,1.63.92,1.97.86.17-.03.23-.16.21-.32-.25-1.18-.36-2.42-.61-3.6-.07-.34-.05-.62-.48-.69ZM18.03,15.54c.14-.36-.15-.72-.37-.99-.63-.75-2.42-2.59-3.17-3.17-.06-.05-.08-.11-.18-.09l.67,3.92c.37,1.04,1.35.93,2.23.67.28-.08.55-.22.81-.34Z"/>
      <path class="cls-1" d="M12.99,9.12c.48-.1,1.07.39,1.13.87.09.68-.75.24-.99-.07-.11-.14-.41-.7-.14-.79Z"/>
    </g>
  </g>
</svg>