<?xml version="1.0" encoding="UTF-8"?>
<svg id="Layer_2" data-name="Layer 2" xmlns="http://www.w3.org/2000/svg" viewBox="0 0 28 24.07">
  <defs>
    <style>
      .cls-1 {
        fill: #27113a;
        opacity: .69;
      }
    </style>
  </defs>
  <g id="Layer_13" data-name="Layer 13">
    <path class="cls-1" d="M0,10.99c.18-.3.54-.31.86-.37.58-.1,1.17-.14,1.76-.13-.52-1.14-.96-2.42-1.04-3.69-.03-.5-.15-1.15.52-1.12.38.02,1.02.19,1.41.29.78.21,1.5.53,2.23.86-.11-.71-.04-1.49.06-2.21.07-.47.21-1.26.39-1.69.07-.17.14-.3.34-.32.36-.04,1.26.31,1.63.45.75.3,1.45.7,2.12,1.14.52-1.21,1.38-2.36,2.35-3.25.16-.15,1.06-.91,1.19-.94.41-.11.83.34,1.13.59,1.17.96,2.16,2.22,2.76,3.61.68-.43,1.37-.84,2.12-1.14.37-.15,1.27-.49,1.63-.45.2.02.27.15.34.32.18.43.32,1.22.39,1.69.1.71.17,1.5.06,2.21.73-.33,1.45-.65,2.23-.86.38-.1,1.03-.27,1.41-.29.65-.03.55.57.52,1.07-.07,1.26-.51,2.61-1.04,3.75.7.02,1.51.02,2.18.2.73.19.39.71.18,1.2-1.32,3.11-4.43,5.51-7.72,6.2.89.79,1.69,1.83,2.1,2.95.25.69.39.98-.45,1.13-1.46.27-3.12,0-4.44-.66-.12-.06-.88-.56-.93-.52-.26.96-.94,2-1.67,2.68-.24.22-.53.53-.88.33-.24-.14-.76-.73-.95-.96-.47-.58-.92-1.32-1.1-2.05-.04-.04-.81.46-.93.52-1.31.67-2.99.93-4.44.67-.27-.05-.59-.08-.64-.41-.03-.24.24-.86.35-1.11.44-.99,1.14-1.85,1.94-2.57-3.07-.66-5.83-2.67-7.34-5.43-.24-.44-.42-.91-.65-1.35v-.33ZM21.1,3.56c-1.09.26-2.15.8-3.06,1.45-.37.26-.98,1.08-1.37.6-.32-.38.17-.6.37-.88-.63-1.51-1.73-2.85-3.06-3.79-1.3.99-2.41,2.27-3.03,3.79.77.76,1.51,1.53,2.03,2.49.29-.16.7-.67,1.04-.66.29.01.71.52.99.66.13-.01.42-1.19,1.04-.82.54.32-.34,1.03-.39,1.43.85.87,1.55,1.85,2.08,2.95.95-.62,2-1.04,3.1-1.34.72-1.87.83-3.94.27-5.87ZM7.18,9.45c1.1.25,2.13.72,3.08,1.32.53-1.11,1.25-2.09,2.09-2.97-1.11-2.09-3.14-3.63-5.42-4.24-.48,1.41-.5,3.04-.18,4.5.11.48.26.94.43,1.4ZM3.94,10.61v-1.12s.12-.19.17-.22c.35-.25,1.61.03,2.08-.06l-.39-1.36c-1.03-.6-2.2-1.1-3.39-1.23.14,1.38.53,2.7,1.16,3.93l.37.06ZM24.06,9.49c.06.3-.05.8,0,1.12l.37-.06c.63-1.22,1.02-2.55,1.16-3.93-1.19.14-2.36.63-3.39,1.23l-.39,1.36c0,.1,1.75-.17,2.08.06.05.03.16.17.17.22ZM17,11.37c.08-.13-.33-.85-.42-1.01-.63-1.12-1.56-2.07-2.56-2.86-.93.67-1.8,1.57-2.41,2.55-.12.2-.69,1.16-.6,1.32.38.25,1.72,1.57,1.74,1.96.01.26-.29.49-.53.43-.23-.06-.61-.68-.8-.9-1.71-1.87-4.11-2.86-6.64-2.84.01,2.84,1.26,5.56,3.59,7.21,1.49,1.05,3.38,1.66,5.21,1.56.03-.91-.11-1.82-.37-2.69-.11-.37-.61-1.24-.23-1.52.61-.44.83.78.98,1.15.03.06-.04.1.11.08.46-1.73,1.54-3.35,2.94-4.44ZM23.24,10.01c-1.82,0-3.66.51-5.16,1.54-2.35,1.62-3.72,4.4-3.65,7.26,2.92.06,5.84-1.41,7.4-3.89.93-1.47,1.38-3.18,1.4-4.92ZM4.05,11.43c-.98-.1-2-.18-2.98,0-.05.01-.12-.03-.08.08.05.16.33.65.43.83,1.13,2.02,2.98,3.63,5.15,4.45-1.37-1.46-2.3-3.35-2.52-5.36ZM27.01,11.43c-1.02-.14-2.04-.14-3.06,0-.22,2.01-1.15,3.89-2.52,5.36,2.48-.94,4.55-2.91,5.58-5.36ZM11.36,19.43l-2.56-.87c-.97.69-1.73,1.7-2.13,2.82,1.28.19,2.66-.04,3.81-.65.14-.07.84-.5.9-.58.12-.16.04-.54-.02-.73ZM21.33,21.38c-.38-1.14-1.18-2.1-2.12-2.84l-2.59.9c-.04.19-.12.54,0,.71.06.08.76.51.9.58,1.15.61,2.53.83,3.81.65ZM15.75,19.58c-1.16.14-2.34.14-3.5,0,.07,1.35.75,2.6,1.73,3.5,1.03-.84,1.69-2.17,1.77-3.5Z"/>
  </g>
</svg>