<?xml version="1.0" encoding="UTF-8"?>
<svg id="Layer_2" data-name="Layer 2" xmlns="http://www.w3.org/2000/svg" viewBox="0 0 34.77 29.16">
  <defs>
    <style>
      .cls-1 {
        fill: #27113a;
        opacity: .69;
      }
    </style>
  </defs>
  <g id="Layer_13" data-name="Layer 13">
    <g>
      <path class="cls-1" d="M34.74,3.68c.04.3.03.98,0,1.29-.03.25-.17.74-.25,1-.42,1.41-1.31,2.68-2.32,3.72.22.29.55.52.81.81,2.06,2.33,2.25,5.81.4,8.33-.13.18-.61.79-.78.85-.32.1-.67-.09-.7-.43-.03-.36.56-.86.78-1.19,2.8-4.2-.92-9.64-5.79-8.61.11.15.33.24.47.37,3.02,2.71,3.27,7.07.31,9.94-.07.07-.81.6-.71.68.85.11,1.67.11,2.51-.1.4-.1,1.21-.61,1.46-.03.19.44-.15.65-.49.8-1.16.52-2.74.53-3.96.27-.24-.05-.63-.25-.83-.26-.35-.02-.99.34-1.38.35.09,1.06.06,2.08-.26,3.1-1.79,5.65-9.69,6.25-12.28.92-.23-.47-1.12-2.57.09-2.33.41.08.42.78.53,1.1,2.33,6.56,11.75,4.15,10.89-2.48-.73-5.62-8.68-6.6-10.76-1.28-.17.45-.29,1.74-1.06,1.3-.38-.21-.21-.66-.13-.99.58-2.38,2.87-4.45,5.31-4.77l-.07-.61c-4.67-.01-8.97-1.66-12.6-4.52C1.57,9.06-1.16,5.34.52,2.3,2-.4,5.46-.28,8,.62c1.79.64,3.17,1.82,5,2.39,2.43.76,5.62.79,8.09.19,3.51-.85,5.73-3.75,9.81-3.12,1.79.28,3.61,1.69,3.84,3.59ZM28.84,8.36c.6.04,1.21.23,1.76.44.21.08.55.36.74.27.27-.12,1.19-1.42,1.39-1.74,2.64-4.32-.4-7.24-4.94-5.97-1.92.54-3.33,1.79-5.15,2.44-2.9,1.05-6.9,1.11-9.85.22-2.27-.69-3.96-2.29-6.3-2.79C2.41.36-.33,2.92,1.78,6.91c1.71,3.22,6.52,5.98,9.96,6.85,1.55.39,3.16.55,4.76.63.12-.97.36-1.95.88-2.78-2.92-.02-5.78-.43-8.45-1.62-1.42-.63-3.24-1.69-4.43-2.69-.38-.31-1.59-1.26-1.09-1.77.54-.55,1.17.49,1.56.82,3.46,2.96,7.93,4.25,12.44,4.24.11,0,.64-.06.73-.09.13-.04.59-.59.76-.73,1.61-1.33,3.69-1.77,5.73-1.33.24.05.85.31,1.02.28,1.24-.25,3.12-1.51,4.1-2.35.37-.32.88-1.13,1.37-.96.71.24.21.86-.11,1.21-.62.66-1.46,1.18-2.17,1.73ZM17.59,15.89c2.85.02,5.38,1.8,6.34,4.48.13.14.76-.07.95-.14,4.09-1.34,5.18-6.75,1.89-9.57-4.01-3.44-10.04.08-9.18,5.22Z"/>
      <path class="cls-1" d="M14.72,20.99c.88-.19,1.74,1.08,1.78,1.86.02.34-.32.19-.55.14-.41-.1-.86-.3-1.14-.63s-.72-1.24-.09-1.38Z"/>
      <path class="cls-1" d="M17.23,18.62c.45-.04.68.75.7,1.1.04.65-.26,1.17-.65,1.66-.51-.42-.79-1.19-.71-1.86.04-.32.29-.88.65-.91Z"/>
      <path class="cls-1" d="M30.99,12.64c.56-.16.84.77.84,1.18,0,.46-.36,1.3-.78,1.53-.5-.61-.84-1.54-.46-2.29.05-.1.3-.39.4-.42Z"/>
      <path class="cls-1" d="M17.77,23.63c.1-.03.9.23,1.04.31.85.44,1.49,2.09.21,1.76-.62-.16-1.09-.8-1.25-1.39-.04-.15-.19-.62.01-.67Z"/>
      <path class="cls-1" d="M18.29,22.01c.24-.29,1.01-.4,1.36-.35.22.03,1.3.51,1.26.7-.57.57-1.55.87-2.31.48-.31-.16-.58-.51-.31-.83Z"/>
      <path class="cls-1" d="M28.34,3.22c.53-.03.71.62.25.99-3.12,2.47-8.74,3.29-12.6,3.14-.91-.04-2.52-.13-3.37-.36-.71-.19-.74-.92-.01-1.06,4.72.78,9.71.51,14-1.73.34-.18,1.49-.95,1.74-.97Z"/>
      <path class="cls-1" d="M10.79,5.53c.36.36.07.91-.49.86-.77-.06-3.11-1.27-3.85-1.71-.35-.21-1.16-.57-1.02-1.06.26-.93,1.48.16,1.95.4.42.22.88.47,1.31.66.38.17,1.95.69,2.11.84Z"/>
      <path class="cls-1" d="M23.94,11.02c.45-.04.68.76.7,1.1.04.65-.26,1.17-.65,1.66-.51-.42-.8-1.2-.71-1.86.04-.31.3-.88.65-.91Z"/>
      <path class="cls-1" d="M22.66,13.86c.14.24-.69.64-.87.7-.56.18-2.13.05-1.78-.76.36-.84,2.09-.45,2.65.06Z"/>
      <path class="cls-1" d="M23.26,15.01c.28-.05.69,1.11.71,1.38.11,1.84-1.61,1.66-1.35-.2.03-.21.45-1.15.65-1.19Z"/>
    </g>
  </g>
</svg>