<?xml version="1.0" encoding="UTF-8"?>
<svg id="Layer_2" data-name="Layer 2" xmlns="http://www.w3.org/2000/svg" viewBox="0 0 24.56 29.78">
  <defs>
    <style>
      .cls-1 {
        fill: #27113a;
        opacity: .69;
      }
    </style>
  </defs>
  <g id="Layer_13" data-name="Layer 13">
    <path class="cls-1" d="M13.55,0c.56.29.99.95,1.35,1.47,2.32,3.29,3.14,6.49,1.02,10.18-.09.16-.33.38-.37.5-.08.25-.05.96-.09,1.3-.12.96-.35,1.94-.79,2.81.99,2.28,1.78,4.65,2.2,7.12.98-.9,1.62-2.12,2.2-3.3-.17-.46-.43-.92-.62-1.4-1.58-4.16-.39-7.44,2.26-10.74.28-.35,1.34-1.63,1.7-1.74.83-.24,1.12.24,1.34.91.43,1.27.76,3.27.8,4.61.01.37.06.89-.44.91-.44.02-.46-.38-.49-.73-.07-.9-.09-1.64-.25-2.54-.1-.55-.32-1.79-.55-2.24-.02-.04,0-.11-.1-.07-.14.06-1.03,1.11-1.19,1.31-1.16,1.43-2.43,3.43-2.78,5.25-.34,1.8.04,3.51.68,5.19l1.41-5.66c.16-.54.93-.43.86.16l-1.34,5.67c1.07-.85,2.07-2.02,2.63-3.28.13-.3.43-1.42.54-1.55.2-.22.62-.15.74.13.1.24-.09.75-.17,1.02-.54,1.69-1.98,3.51-3.39,4.57-.18.14-.66.38-.75.47-.17.17-.47.96-.63,1.23-.6,1.04-1.32,2.1-2.25,2.87.06.9.21,1.8.26,2.7.04.62.13,1.63.06,2.21-.06.53-.69.61-.87.11l-.12-2.3c-1.72.99-3.78,1.49-5.76,1.08-1.5-.32-3.08-1.2-4.32-2.08-.34-.24-1.11-.77-1.36-1.06-.45-.51-.26-1.18.33-1.46,1.43-.68,4.28-1.12,5.85-1.02,1.96.12,3.74,1.2,5.09,2.56-.19-1.75-.55-3.49-1.1-5.15-1.03.13-2.05-.08-3.04-.33-.21-.06-.8-.31-.95-.31-.09,0-.2.11-.31.14-3.93.87-6.71-.63-9.08-3.62-.3-.38-1.37-1.82-1.4-2.22-.04-.52.4-.91.9-.96,3.2-.28,6.9.63,8.9,3.26.59.78,1.05,1.68,1.39,2.6,1.06.34,2.17.63,3.3.59-.98-3.08-2.66-5.96-4.85-8.32-3.06-.02-5.84-1.35-7.58-3.87-.24-.35-.87-1.13-.54-1.5.53-.6,1.06.71,1.29,1.04,1.44,2.03,3.34,3.04,5.81,3.41l-4.12-4.23c-.07-.36.38-.69.69-.45l4.01,3.92c-.13-1.19-.56-2.46-1.2-3.48C6.79,3.19,3.67,2.04.96,1.22c-.06.24.05.52.12.76.11.4.67,1.69.66,1.95,0,.41-.62.64-.9.09C.65,3.63.02,1.75,0,1.36-.03.83.49.32,1.02.35c.66.03,2.56.78,3.23,1.08,3.87,1.7,6.11,4.39,6.31,8.75,1.05,1.12,1.98,2.36,2.79,3.67.23.37.47.95.71,1.26.04.05,0,.11.13.07.25-.97.48-1.97.45-2.98-2.12-1.8-3.38-4.02-3.25-6.88.04-.9.71-4.53,1.31-5.09.11-.1.26-.14.38-.23h.47ZM15.47,10.64c.32-.8.64-1.62.75-2.48.35-2.66-1.25-5.27-2.87-7.23-.93,2.3-1.56,5.19-.52,7.56.38.86.99,1.68,1.66,2.33l-.74-4.73c.03-.4.54-.51.8-.24.4,1.54.52,3.15.81,4.71.02.09-.04.1.11.09ZM10.3,17.97c-.64-1.38-1.73-2.69-3.12-3.36-1.78-.87-3.94-1-5.89-1-.05.05.65,1.05.73,1.16,1.18,1.64,2.82,3.37,4.85,3.87.98.24,2.04.28,3.03.12l-4.24-2.27c-.36-.63.05-.95.7-.64,1.33.63,2.61,1.49,3.95,2.12ZM15.53,25.76c-1.02-1.09-2.49-2-3.99-2.2s-3.16.08-4.57.48c-.17.05-1.32.38-1.32.48,2.57,2.16,5.89,3.95,9.26,2.4l.51-.28-4.73-.83c-.4-.1-.35-.72.01-.84l4.83.79Z"/>
  </g>
</svg>