<?xml version="1.0" encoding="UTF-8"?>
<svg id="Layer_2" data-name="Layer 2" xmlns="http://www.w3.org/2000/svg" viewBox="0 0 22.08 27.95">
  <defs>
    <style>
      .cls-1 {
        fill: #27113a;
        opacity: .69;
      }
    </style>
  </defs>
  <g id="Layer_13" data-name="Layer 13">
    <path class="cls-1" d="M13.39.62c.16.19.39.31.58.49,1.57,1.49,1.34,3.85-.08,5.37l.34,1.14,1.17-.33c.36-1.7,1.71-3.1,3.49-3.16.56-.02,1.02.09,1.55.25.24.15.54.25.77.41.18.12.68.54.8.72.18.27-.02.81-.14,1.11-1.11,2.81-4.09,3.33-6.29,1.36-.87.32-1.82.44-2.64.87-2.25,1.17-4.02,3.78-5.04,6.05-.06.13-.1.28-.12.42l.95-.03c1.42-2.77,4.99-3.11,6.71-.39.36.56.2.73-.16,1.29-1.61,2.51-4.94,2.26-6.48-.2l-1.37.03-1.87,4.89-1.16,2.56.96-.02c1.3-2.39,4.13-3.04,6.13-1.02.26.27.86.98.73,1.36-.09.27-.51.82-.7,1.05-1.8,2.11-4.7,1.57-6.15-.65h-1.34s-1.89,3.54-1.89,3.54c-.19.32-.57.26-.68-.09l2.48-4.78.92-2.16-.73-1.22c-3.36.19-5.25-3.27-3.36-6,2.22-.46,4.47,1.11,4.52,3.45.02.8-.21,1.49-.52,2.21l.45.7,1.98-5.07c.42-.93.94-1.79,1.4-2.7l-.69-1.07c-3.12.18-5.16-2.94-3.59-5.68.22-.39.26-.39.68-.42.94-.06,1.96.24,2.71.81,1.52,1.17,1.73,3.25.83,4.88l.55.88c1.15-1.58,2.62-3.03,4.5-3.67l-.36-1.13c-2.98-.67-4.17-3.82-2.19-6.22.64-.77.85-.41,1.71-.2l.66.35ZM13.65,5.68l.56-1.05c.05-.1.12-.58.14-.73.15-1.59-1.1-2.89-2.61-3.18-1.71,1.7-1.15,4.47,1.22,5.15-.07-.58-1.17-3.31-1.06-3.66.08-.26.4-.34.59-.14l1.16,3.6ZM21.34,5.85c-1.65-1.75-4.44-1.16-5.14,1.18l3.59-1.07c.28.01.37.31.29.53l-.24.18-3.42,1.06c1.93,1.49,4.45.49,4.92-1.89ZM8.03,9.83c1.03-2.2-.72-4.34-3.05-4.23-1.29,2.03-.02,4.59,2.43,4.66l-1.93-3.11c-.03-.41.38-.66.65-.31l1.9,2.99ZM14.9,15.39c-1.24-2.07-3.93-2.24-5.26-.19l3.59-.09c.34.04.49.39.24.64-.22.22-3.29.05-3.79.26,1.5,1.93,4.2,1.54,5.23-.61ZM4.28,18.38c1.01-2.21-.71-4.51-3.11-4.23-1.17,2.02.04,4.57,2.47,4.58l-1.85-2.98c-.21-.32.11-.66.43-.54.26.09,1.72,2.81,2.06,3.18ZM11.46,23.59c-1.19-2.01-3.98-2.25-5.21-.16l3.59-.09c.32.04.41.39.19.61-.24.24-3.27.08-3.79.26,1.49,1.93,4.26,1.62,5.23-.61Z"/>
  </g>
</svg>