<?xml version="1.0" encoding="UTF-8"?>
<svg id="Layer_2" data-name="Layer 2" xmlns="http://www.w3.org/2000/svg" viewBox="0 0 27.1 29.92">
  <defs>
    <style>
      .cls-1 {
        fill: #3f3f3f;
        opacity: .73;
      }
    </style>
  </defs>
  <g id="Layer_4" data-name="Layer 4">
    <g>
      <path class="cls-1" d="M24.63,2.15c.77.02,2.36-.2,2.46.92.04.49-.68,1.99-1,2.39-.76.95-2.05,1.38-3.2.9l-.13.83.67,1.83c.92.08,2.75-.37,2.79,1.05,0,.29-.72,1.96-.92,2.28-.8,1.31-2.52,1.94-3.95,1.29.03.24-.14.55-.14.77,0,.16.25.48.32.68.18.48.31.99.49,1.48.1.06,1.65-.02,1.96.01.75.08,1.28.63,1.14,1.4-.09.48-.89,2.21-1.2,2.6-1.08,1.35-2.8,1.82-4.37,1-.27.91-.78,1.73-1.27,2.54.5-.11,1-.26,1.51-.32,1.26-.15,2.63.02,3.81.51,1.74.74,1.71,1.59.18,2.6-2.02,1.32-4.8,1.84-6.96.58-.38-.22-.66-.54-1.03-.71-.8.47-1.61,1.24-2.42,1.66-.28.15-.71.39-.96.03-.52-.76,1.01-1.25,1.4-1.66-1.33-1.68-2.13-3.96-1.57-6.1.19-.75.46-1.28,1.36-1.02.54.16,1.51,1.43,1.8,1.94.55.94.92,2.05.88,3.16.98-.9,1.64-2.11,2.2-3.3-2.27-.14-3.61-2.17-3.41-4.34.18-.6-.12-1.31.34-1.8.88-.93,2.19.31,3.16.49.52-.53.93-1.2,1.58-1.58l.13-.88c-1.51.17-2.93-1.34-3.07-2.77-.05-.47-.06-1.6,0-2.06.05-.37.35-.79.72-.88.79-.19,1.58.46,2.31.69l1.42-1.43.15-.82c-1.39.11-2.57-1.26-2.67-2.57-.05-.58-.11-1.99.38-2.36.78-.59,1.61.29,2.38.38.36-.3.79-1.06,1.24-1.16,1.12-.26,1.23,1,1.48,1.77ZM22.57,4.88c.59-.05.95-.59,1.09-1.12.22-.8-.08-1.39-.3-2.14-.97.77-1.73,2.17-.79,3.26ZM20.22,2.09v1.37c0,.17.2.66.31.83.16.25.45.54.76.61-.27-.75-.31-1.61,0-2.36l-1.07-.44ZM25.96,3.29h-1.13c-.03.83-.38,1.62-1,2.17,1.27.09,1.75-1.19,2.14-2.17ZM22.02,8.09c-.06-.06-1.1,1.17-1.16,1.27-.52.85-.58,2.13.27,2.79,1.81-.63,1.44-2.64.89-4.06ZM18.29,8.69v1.84c0,.11.23.64.3.77.21.39.69.93,1.17.9-.45-.97-.43-1.97-.07-2.97l-1.4-.53ZM25.09,10.1h-1.53c.06,1.02-.43,1.99-1.2,2.64-.03.15.07.1.17.1,1.52.05,2.18-1.56,2.57-2.74ZM20.49,15.37c-.99.95-1.91,1.88-1.8,3.37.04.65.39,1.01.77,1.49.72-.33,1.2-.7,1.47-1.46.45-1.28-.06-2.21-.43-3.4ZM16.22,16.1v2.3c0,.09.3.7.37.83.3.49.89,1.05,1.5,1.04-.67-1.05-.56-2.35-.14-3.46l-1.73-.71ZM24.09,17.7l-1.86-.06c-.12.26-.05.52-.11.79-.2.99-.64,1.78-1.44,2.4.56.18,1.09.02,1.58-.26,1.14-.63,1.3-1.79,1.82-2.88ZM14.75,26.18c1.06-1.84.06-4.03-1.37-5.34-.1,0-.23.89-.24,1.03-.08,1.48.61,3.23,1.6,4.31ZM23.69,25.51c-2.21-1.11-4.96-.81-7.01.5,1.7,1.73,4.79,1.23,6.59-.09.09-.06.49-.31.42-.41Z"/>
      <path class="cls-1" d="M7.82,1.54c.73,0,1.8-.6,2.38.06.15.17.28.48.27.71-.01.36-.26,1.39-.38,1.76-.4,1.25-1.75,2.25-3.09,1.95.04.26-.06.65.01.89.02.07.39.5.48.65.18.29.33.61.51.9.76.05,1.84-.6,2.53-.13.26.17.48.62.47.93,0,.35-.27,1.51-.38,1.89-.45,1.53-2,2.7-3.62,2.28.04.26-.06.65.01.89.03.11.23.23.31.36.31.49.56,1.03.88,1.53l2.29-.42c.58.07,1.06.56,1.06,1.15,0,.45-.37,2.01-.54,2.47-.58,1.57-2.12,2.57-3.79,2.25-.11-.02-.09-.03-.08.08.05,1.01.96,2.96,1.5,3.84.85,1.35,2.08,2.37,3.13,3.54.17.45-.16.91-.65.78-.88-.72-1.62-1.64-2.43-2.44-.69.26-1.32.6-2.06.72-1.61.26-3.25-.34-4.57-1.22-.62-.41-1.97-1.53-2.06-2.28-.09-.85.74-1.06,1.39-1.2,1.9-.39,3.74-.05,5.41.9-.33-.88-.67-1.79-.73-2.74-.05-.05-.98.11-1.16.11-1.17-.02-2.39-.93-2.9-1.95-.26-.52-.7-2.37-.68-2.93s.5-1.04,1.06-1.09c.4-.03,2.18.51,2.28.45.25-.47.5-.94.78-1.39.14-.22.4-.42.43-.64.03-.23-.03-.53,0-.77-1.35.34-2.83-.47-3.41-1.69-.22-.46-.65-2.27-.57-2.73.07-.4.48-.81.88-.85s1.98.39,2.09.32c.19-.36.38-.7.58-1.05.31-.53.57-.65.43-1.41-1.52.24-2.79-.75-3.18-2.19-.12-.45-.36-1.51-.22-1.92.38-1.11,1.74-.4,2.54-.39.45-.59.77-1.78,1.74-1.48.43.13.85,1.12,1.08,1.49ZM6.85,4.33c.76-.89.17-2.23-.41-3.05-.79,1.01-1.26,2.56,0,3.4.09-.15.33-.25.41-.35ZM4.61,2.55l-1.07-.13c.14,1.09.35,2.28,1.6,2.53-.52-.73-.59-1.52-.53-2.4ZM9.34,2.42l-1.07.13c.07.89-.06,1.65-.53,2.4,1.26-.29,1.42-1.46,1.6-2.53ZM6.44,7.96c-1,1.23-1.56,3.04-.06,4.13,1.67-.91,1.01-2.92.06-4.13ZM5.14,12.43c-.64-.84-.9-1.82-.7-2.87l-1.44-.33c.1,1.39.48,3.07,2.13,3.2ZM7.74,12.43c1.64-.13,2.01-1.83,2.13-3.2l-1.44.33c.17,1.06-.06,2.02-.69,2.87ZM6.47,15.3c-.68,1.03-1.33,1.91-1.19,3.23.08.8.52,1.33,1.16,1.76.9-.56,1.25-1.43,1.16-2.48-.09-.97-.77-1.65-1.13-2.51ZM4.27,17.24l-1.87-.34c.18.64.22,1.33.41,1.96.29.96,1.27,1.88,2.33,1.77-.93-.87-1.07-2.2-.87-3.4ZM10.41,16.9l-1.79.34c.18,1.2,0,2.5-.87,3.4,2.05.05,2.54-2.09,2.67-3.74ZM7.94,26.58c.03-.1-.03-.11-.07-.17-.18-.26-1.17-.87-1.49-1.04-1.62-.89-3.44-1.26-5.25-.72.72.91,1.68,1.64,2.76,2.08,1.42.58,2.69.6,4.05-.15Z"/>
    </g>
  </g>
</svg>