<?xml version="1.0" encoding="UTF-8"?>
<svg id="Layer_2" data-name="Layer 2" xmlns="http://www.w3.org/2000/svg" viewBox="0 0 32.19 32.16">
  <defs>
    <style>
      .cls-1 {
        fill: #122618;
        stroke: #fff;
        stroke-miterlimit: 10;
        stroke-width: .71px;
      }
    </style>
  </defs>
  <g id="Layer_19" data-name="Layer 19">
    <path class="cls-1" d="M14.56.35c.61.12,1.18.28,1.72.58.44.24.73.54,1.09.88.33.02.65-.14.97-.17,2.32-.21,4.26,1.25,4.78,3.49,2.24.51,3.7,2.46,3.49,4.78-.02.25-.23.78-.17.97.03.12.43.43.54.57.79.99.77,1.91,1.06,3.06.83,3.22,1.82,6.41,2.67,9.63.34,1.28.97,3.11,1.11,4.36.42,3.76-4.88,4.61-5.73,1-.19-2.78-.04-5.58-.09-8.36l-.52.68c-.64.65-1.45,1.13-2.35,1.3-.53,2.58-3.18,4.12-5.69,3.32-1.8,1.94-4.8,1.96-6.6,0-2.49.8-5.21-.72-5.68-3.32-2.6-.48-4.12-3.18-3.32-5.68-.79-.75-1.27-1.67-1.47-2.75.03-.36-.04-.76,0-1.11.02-.17.13-.52.18-.71.24-.8.7-1.45,1.28-2.04-.81-2.51.74-5.16,3.31-5.69.52-2.61,3.15-4.06,5.69-3.32.77-.74,1.78-1.36,2.87-1.47h.86ZM21.59,6.66c-.32-.32-.22-.72-.29-1.09-.31-1.53-1.75-2.46-3.26-1.97-.43.14-.64.44-1.16.31-.55-.14-.61-.6-.96-.95-1.02-1.04-2.74-.97-3.69.12-.29.34-.33.69-.83.83s-1.16-.39-1.77-.43c-1.32-.09-2.41.8-2.66,2.08-.09.46.07.8-.38,1.15-.36.28-.52.15-.89.22-1.49.28-2.4,1.41-2.17,2.96.08.57.53.9.39,1.53-.11.46-.5.54-.8.8-1.04.87-1.18,2.4-.34,3.47.48.61,1.31.69,1.15,1.65-.04.24-.22.46-.29.69-.47,1.43.39,3.03,1.89,3.28.41.07.81-.04,1.15.32s.22.72.29,1.12c.22,1.34,1.52,2.16,2.84,2.01.6-.07.99-.55,1.64-.4.4.1.76.85,1.13,1.14,1.06.84,2.6.7,3.47-.34.26-.3.34-.69.8-.8.57-.13.76.17,1.24.31,1.34.39,2.79-.32,3.16-1.69.15-.53-.03-1.07.46-1.45.36-.28.62-.15,1-.23,1.34-.26,2.25-1.45,2.06-2.83-.07-.5-.51-1.05-.44-1.51.09-.6.69-.73,1.07-1.15.91-1.01.86-2.57-.12-3.51-.35-.33-.78-.38-.92-.93s.17-.73.31-1.16c.49-1.52-.44-2.96-1.97-3.27-.37-.08-.77.03-1.09-.29ZM27.84,21.17v7.07c0,.17.04.67.07.86.1.76,1.03,1.11,1.65.68.74-.52.29-1.56.12-2.27-.53-2.17-1.22-4.31-1.72-6.49-.06-.02-.12.13-.12.15Z"/>
  </g>
</svg>