<?xml version="1.0" encoding="UTF-8"?>
<svg id="Layer_2" data-name="Layer 2" xmlns="http://www.w3.org/2000/svg" viewBox="0 0 28.75 28.76">
  <defs>
    <style>
      .cls-1 {
        fill: #bfa22f;
        opacity: .88;
      }
    </style>
  </defs>
  <g id="Layer_7" data-name="Layer 7">
    <path class="cls-1" d="M19.58,6.26c3.65-1.29,6.72,1.76,8.47,4.59.17.27.63.98.69,1.24.07.36-.21,1.2-.32,1.58-.58,1.95-1.55,4.15-3.23,5.37.05,1.19-.08,2.42-.56,3.52-.43.99-.93,1.41-1.96,1.73-2.53.78-4.96.14-7.01-1.43-.31.95-.59,1.91-.75,2.9-.1.6-.09,1.28-.19,1.85-.17.99-1.2,1.49-2.06.9-.68-.47-.53-1.54-.63-2.29-.17-1.21-.5-2.38-.87-3.54-.09-.02-.1.02-.15.06-.27.19-.55.49-.83.69-1.24.91-3.8,2.48-5.25,1.35-1.56-1.21-1.39-3.44-.87-5.14-1.56-.91-2.55-2.61-3.26-4.22-.22-.5-.75-1.69-.8-2.18-.05-.46.46-1.34.69-1.76,1.67-3.05,4.92-6.52,8.72-4.69.18-2.17,1.21-4.17,2.8-5.64.28-.26,1.28-1.08,1.61-1.13.48-.08,1.26.4,1.68.65,2.04,1.24,3.57,3.25,4.07,5.6ZM18.92,6.66c-.5-2.7-2.41-4.92-4.93-5.95-1.72,1.04-3.1,2.77-3.62,4.73-.16.6-.2,1.17-.26,1.78,1.05,1.11,1.1,2.53,1.91,3.83.37.6.88,1.21,1.43,1.64.02-2.27-.58-4.49-1.41-6.58-.02-.37.42-.53.65-.23s.59,1.51.72,1.91c.49,1.63.68,3,.74,4.69,0,.07-.04.22.06.2.33-.95.55-1.95.64-2.95.02-.26.05-.61.06-.87.01-.39-.14-1.98,0-2.17.19-.27.57-.09.63.19.03.14.06.47.07.63.12,1.76-.13,3.66-.7,5.32.33.16.61-.24.82-.47.56-.62,1.08-1.53,1.36-2.32.46-1.27.46-2.66,1.85-3.38ZM16.3,14.03h.91c.57,0,2.04-.63,2.6-.9.24-.12.79-.53,1.01-.49.28.05.36.37.22.59-.12.2-1.83.96-2.15,1.08l-1.42.42c1.53.01,2.01,1.64,2.89,2.57.77.82,2.34,1.66,3.49,1.5,1.72-.24,2.95-2.77,3.49-4.22.2-.53.61-1.67.68-2.19.03-.24-.39-.86-.54-1.11-1.45-2.36-4.26-5.42-7.36-4.45-2.24.7-1.87,2.6-2.74,4.33-.38.74-.9,1.43-1.49,2.02l.09.14c1.73-.58,3.21-1.72,4.44-3.04.2-.22.75-1.17,1.08-.62.2.33-.23.72-.44.97-1.44,1.64-2.65,2.33-4.58,3.25-.07.03-.17.03-.19.13ZM11.16,11.05c-.15-.4-.36-.76-.51-1.15-.52-1.35-.57-2.22-2.18-2.73-2.85-.91-5.4,1.77-6.74,3.95-.18.29-1.04,1.78-1.02,2,.96,2.92,3.25,8.36,7.09,5.24,1.3-1.06,1.32-2.53,2.4-3.68l.38-.29c-1.57.05-3.37.43-4.61,1.44-.3.24-1.06,1.35-1.38.67-.15-.34.71-1.05.97-1.25,1.77-1.36,3.77-1.53,5.93-1.61.07,0,.22.04.2-.06-2.24-.82-4.7-.72-6.92.12-.72-.25-.35-.62.17-.82,1.5-.59,3.61-.71,5.18-.45,1.03.17,1.97.53,2.91.98-1.27-1.38-3.22-2.33-5.01-2.85-.36-.1-1.5-.14-1.35-.68.12-.4.71-.2.99-.14.88.17,1.85.54,2.66.91.11.05.8.45.84.42ZM14.61,16.6c.47-.95,2.02-3.25-.2-3.03-.71.07-1.48.47-1.16,1.32.04.09.78,1.32.86,1.42.13.15.33.2.49.29ZM24.48,19.4c-1.86.55-3.92-.67-5.05-2.11-.69-.88-.91-1.81-2.23-1.92-.28-.02-.83,0-1.11.06-.2.04-.26.42-.35.59-.14.25-.31.5-.44.76.73,0,1.25-.54,2-.45,1.44.18,1.63,2.01,1.15,3.1-.73,1.64-2.6.71-3.67-.02l.02,1.55c1.84,2.36,5.19,3.76,8.08,2.49,1.39-.61,1.56-2.71,1.6-4.04ZM12.97,17.88c-.04-.45.1-.89.4-1.21-.3-.43-1.23-1.19-1.78-1.19-.86,0-1.24,1.77-.79,2.31.51.61,1.51-.03,2.16.09ZM12.09,18.7c-.7.2-1.36.12-1.84-.47s-.36-1.02-.29-1.7c0-.06.08-.19-.03-.17-.37,1.11-1.02,2.1-1.99,2.77s-2.05,1.08-3.21.8c-.34,1.21-.57,2.86.27,3.91.51.64.94.72,1.72.56,1.18-.24,2.84-1.3,3.74-2.1.17-.15.97-.92.93-1.1-.51-.52-.44-1.28,0-1.82l.7-.67ZM17.63,19.44c.42-.41.49-1.84.02-2.23-.54-.44-1.19.06-1.77.21-.24.06-.49.1-.74.11.11.43.03.79-.05,1.22.56.34,1.93,1.27,2.54.69ZM13.95,17.13c-.41.12-.31,1.32.05,1.56.32.21.47-.41.47-.66s-.17-1.01-.52-.91ZM14.07,19.47c-.38-.06-.63-.28-.85-.59-.45.14-1.39.84-1.47,1.32-.14.8,1.48,1.34,2.08,1.08.45-.19.18-1.39.24-1.82ZM11.92,21.69l-.23.48c.5,1.23.85,2.56,1.03,3.88.07.47.04,1.13.14,1.56.12.55.99.61,1.13-.01.08-.33.04-.84.09-1.19.19-1.4.54-2.75.98-4.09l-.6-.62c-.69.72-1.75.32-2.54,0Z"/>
  </g>
</svg>