<?xml version="1.0" encoding="UTF-8"?>
<svg id="Layer_2" data-name="Layer 2" xmlns="http://www.w3.org/2000/svg" viewBox="0 0 31.65 44.44">
  <defs>
    <style>
      .cls-1 {
        fill: #122618;
      }
    </style>
  </defs>
  <g id="Layer_14" data-name="Layer 14">
    <g>
      <path class="cls-1" d="M.58.02c.69-.15,1.68.97,2.32,1.22C3.24,1.28,4.51.02,5.04,0c.57-.03,1.58,1.03,2.16,1.24C7.54,1.28,8.8.02,9.34,0c.57-.03,1.58,1.03,2.16,1.24C11.84,1.28,13.1.02,13.63,0c.57-.03,1.58,1.03,2.16,1.24.34.03,1.61-1.22,2.14-1.24.57-.03,1.58,1.03,2.16,1.24.34.03,1.61-1.22,2.14-1.24.57-.03,1.58,1.03,2.16,1.24.33.03,1.58-1.17,2.05-1.23.63-.08,1.63,1,2.25,1.23.3.03,1.51-1.07,1.91-1.2.52-.16.93.09.99.63.16,1.38-.12,3.06,0,4.48l-1.36,2.13v29.87l1.36,2.13c-.11,1.41.17,3.1,0,4.48-.19,1.65-2.18-.26-2.84-.57-.34-.03-1.61,1.22-2.14,1.24-.57.03-1.58-1.03-2.16-1.24-.34-.03-1.61,1.22-2.14,1.24-.57.03-1.58-1.03-2.16-1.24-.34-.03-1.61,1.22-2.14,1.24-.57.03-1.58-1.03-2.16-1.24-.34-.03-1.61,1.22-2.14,1.24-.57.03-1.58-1.03-2.16-1.24-.34-.03-1.61,1.22-2.14,1.24-.57.03-1.58-1.03-2.16-1.24-.33-.03-1.58,1.17-2.05,1.23-.63.08-1.63-1-2.25-1.23-.3-.03-1.51,1.07-1.91,1.2-.52.16-.93-.09-.99-.63-.16-1.38.12-3.06,0-4.48l1.36-2.13V7.29L.07,5.15c.14-1.39-.21-3.22,0-4.56C.11.33.31.08.58.02ZM30.16,2.07c-.47.23-1.01.88-1.56.8-.47-.06-1.73-1.27-2.05-1.23-.58.22-1.59,1.27-2.16,1.24-.53-.02-1.79-1.28-2.14-1.24-.58.22-1.59,1.27-2.16,1.24-.53-.02-1.79-1.28-2.14-1.24-.58.22-1.59,1.27-2.16,1.24-.53-.02-1.79-1.28-2.14-1.24-.58.22-1.59,1.27-2.16,1.24-.53-.02-1.79-1.28-2.14-1.24-.58.22-1.59,1.27-2.16,1.24-.53-.02-1.79-1.28-2.14-1.24-.55.2-1.56,1.22-2.08,1.24s-1.03-.6-1.48-.81v2.73c0,.23,1.37,1.76,1.44,2.33l-.07,30.48c-.13.31-1.36,1.89-1.36,2.04v2.73c.44-.21.97-.84,1.48-.81s1.52,1.04,2.08,1.24c.34.03,1.61-1.22,2.14-1.24.57-.03,1.58,1.03,2.16,1.24.34.03,1.61-1.22,2.14-1.24.57-.03,1.58,1.03,2.16,1.24.34.03,1.61-1.22,2.14-1.24.57-.03,1.58,1.03,2.16,1.24.34.03,1.61-1.22,2.14-1.24.57-.03,1.58,1.03,2.16,1.24.34.03,1.61-1.22,2.14-1.24.57-.03,1.58,1.03,2.16,1.24.33.03,1.58-1.17,2.05-1.23.55-.07,1.09.57,1.56.8v-2.73c0-.15-1.23-1.73-1.36-2.04l-.07-30.48.81-1.39H9.15c-.62,0-.62-1.43,0-1.43h21v-2.24Z"/>
      <path class="cls-1" d="M8.46,38.72l18.88-.02c.91.09.91,1.35,0,1.44H8.62c-.82-.07-.93-1.16-.16-1.42Z"/>
      <path class="cls-1" d="M6.31,15.07c.36-.08.68.04.85.36l.07,14c-.07.79-1.08.92-1.4.23l-.04-13.94c0-.3.22-.59.51-.65Z"/>
      <path class="cls-1" d="M25.66,14.36c.36-.08.68.04.85.36l.07,12.56c-.07.79-1.08.92-1.4.23l-.04-12.5c0-.3.22-.59.51-.65Z"/>
      <path class="cls-1" d="M5.59,7.19c.46-.1.74.09.9.5s.73,2.65.74,3.03c.02.85-1.08,1.09-1.41.24-.16-.41-.73-2.65-.74-3.03,0-.34.17-.66.52-.74Z"/>
      <path class="cls-1" d="M25.66,31.55c.46-.1.74.09.9.5s.73,2.65.74,3.03c.02.85-1.08,1.09-1.41.24-.16-.41-.73-2.65-.74-3.03,0-.34.17-.66.52-.74Z"/>
      <path class="cls-1" d="M26.37,7.91c.57-.12.97.25.92.82-.02.24-.69,2.22-.81,2.42-.4.64-1.41.34-1.33-.52.03-.26.65-2.12.78-2.36.1-.18.24-.32.44-.37Z"/>
      <path class="cls-1" d="M6.31,32.99c.57-.12.97.25.92.82-.02.24-.69,2.22-.81,2.42-.4.64-1.41.34-1.33-.52.03-.26.65-2.12.78-2.36.1-.18.24-.32.44-.37Z"/>
    </g>
  </g>
</svg>