<?xml version="1.0" encoding="UTF-8"?>
<svg id="Layer_2" data-name="Layer 2" xmlns="http://www.w3.org/2000/svg" viewBox="0 0 24.96 48.67">
  <defs>
    <style>
      .cls-1 {
        fill: #122618;
      }
    </style>
  </defs>
  <g id="Layer_14" data-name="Layer 14">
    <g>
      <path class="cls-1" d="M7.66,12.34c-1.47-.2-3.21-1.89-3.27-3.41-.14-.14-3.32.07-3.89,0-.24-.03-.37-.11-.51-.32V.32C.15.1.34-.02.61,0h23.74c.28-.03.47.1.61.32v8.28c-.14.21-.27.29-.51.32-.56.07-3.75-.14-3.89,0-.09,1.17-.95,2.29-1.94,2.88-.24.14-1.11.54-1.33.54h-1.5v33.41c-.66,3.91-5.98,3.88-6.63,0V12.34c-.48-.04-1.04.06-1.5,0ZM23.77,1.25H1.19v6.42h22.59V1.25ZM19.32,8.92H5.64c.33,1.14,1.17,1.97,2.36,2.15,2.78-.11,5.82.24,8.58.03,1.43-.11,2.3-.83,2.74-2.18ZM14.55,12.34h-4.14v3.52h4.14v-3.52ZM14.55,17.11h-4.14v4.77h4.14v-4.77ZM14.55,23.11h-4.14v22.64c0,.16.48.98.63,1.13.79.76,2.09.76,2.88,0,.15-.15.63-.97.63-1.13v-22.64Z"/>
      <path class="cls-1" d="M22.19,2.94c.43.41.1,1.23-.54,1.12l-18.74-.1c-.45-.49-.21-1.2.5-1.15h18.24c.17.01.41.01.54.13Z"/>
      <path class="cls-1" d="M22.19,5.01c.43.41.1,1.23-.54,1.12l-18.74-.1c-.45-.49-.21-1.2.5-1.15h18.24c.17.01.41.01.54.13Z"/>
    </g>
  </g>
</svg>