<?xml version="1.0" encoding="UTF-8"?>
<svg id="Layer_2" data-name="Layer 2" xmlns="http://www.w3.org/2000/svg" viewBox="0 0 25.9 50.57">
  <defs>
    <style>
      .cls-1 {
        fill: #122618;
      }
    </style>
  </defs>
  <g id="Layer_14" data-name="Layer 14">
    <path class="cls-1" d="M.99,1.6C1.77.64,2.81.13,4.02,0l17.99.25c1.83.21,3.25,1.36,3.73,3.16.28,1.05.19,4.83-.22,5.82-1.07,2.54-3.36,2.74-5.76,2.6-.19.47-.19.95-.4,1.43-.41.93-1.03,1.59-1.93,2.07-.28.15-.85.26-.95.48-1.01,5.24-1.25,10.52-.85,15.83.34,4.57,1.25,9.5,1.38,14.02.19,6.69-9.62,6.44-9.18-.13.31-4.56,1.31-9.38,1.77-13.97.54-5.3.45-10.58-.41-15.85-.1-.23-.67-.36-.94-.51-.88-.5-1.48-1.18-1.87-2.12-.2-.49-.18-.96-.36-1.44-2.21.02-4.16-.03-5.42-2.18C-.32,7.89-.18,3.05.99,1.6ZM22.79,10.11c.7-.33,1.25-.98,1.49-1.72.2-.6.21-4.29-.01-4.88-.4-1.06-1.28-1.72-2.41-1.81l-17.8-.24c-1.13.12-1.99.78-2.37,1.86-.24.67-.27,4.42,0,5.07.19.48.74,1.28,1.25,1.41.18.05.11-.08.13-.19.25-1.82-.12-4.09.09-5.95.04-.28.24-.5.51-.59l18.68.26c.29.11.49.36.5.67l-.05,6.11ZM4.6,4.56c-.06.08-.07,1.82-.04,1.91.02.07.03.12.12.13l16.67.11c.03-.09.05-1.76.03-1.85-.02-.07-.03-.12-.12-.13l-16.65-.17ZM4.55,8.11c-.06.08-.07,1.82-.04,1.91.02.07.03.12.12.13l16.67.11c.03-.09.05-1.76.03-1.85-.02-.07-.03-.12-.12-.13l-16.65-.17ZM7.53,11.7c.12,1.46,1.12,2.42,2.56,2.57.93.1,5.5.19,6.21-.04,1.1-.36,1.76-1.2,1.94-2.32l-10.7-.21ZM14.29,33.24c-.55-5.8-.37-11.65.71-17.38l-4.31-.11c-.11.06-.05.16-.05.25.03,1.31.44,3.05.55,4.44.34,4.24.19,8.51-.36,12.73,1.07-.54,2.42-.6,3.45.08ZM10.58,35.24l-1.31,10.37c-.34,4.18,5.56,4.9,6.25.78l-.99-11.04c-.61-1.03-2.03-1.54-3.09-.91-.25.15-.74.55-.87.79Z"/>
  </g>
</svg>