<?xml version="1.0" encoding="UTF-8"?>
<svg id="Layer_2" data-name="Layer 2" xmlns="http://www.w3.org/2000/svg" viewBox="0 0 24.97 49.85">
  <defs>
    <style>
      .cls-1 {
        fill: #122618;
      }
    </style>
  </defs>
  <g id="Layer_14" data-name="Layer 14">
    <g>
      <path class="cls-1" d="M15.3,15.78c.39,1.71,1.45,3.3,1.6,5.08.23,2.89-.11,5.93-.13,8.81-.03,4.5.05,8.99-.12,13.47-.09,2.27.36,4.15-1.72,5.75-2.99,2.29-7.12.29-7.33-3.42l.12-24.48,1.71-5.2c-3.18,0-3.38-2.82-4.03-5.21-1.85-.3-4.96.77-5.27-1.95C-.04,7.19-.04,3.31.13,1.9S1.16.18,2.38.11c6.68-.38,13.63.36,20.33.12.98.05,2.01.6,2.14,1.65.19,1.56.14,5.26,0,6.86-.06.73-.7,1.7-1.44,1.87s-3.64-.15-3.96.08c-.68,2.45-.84,5.3-4.15,5.09ZM2.69,1.46l-.98.06c-.22.2-.22.46-.25.73-.18,2.05.12,4.39.04,6.47.09.57.75.44,1.19.45V1.46ZM20.93,1.58l-16.77-.12c.04.87-.21,1.71-.12,2.57l16.89.12V1.58ZM22.16,9.41c.63.08,1.23-.13,1.34-.8-.19-1.98.33-4.18.13-6.11-.09-.92-.49-.97-1.35-.92l-.12,7.84ZM20.92,5.5l-16.89-.25v1.35s16.89.12,16.89.12v-1.22ZM20.81,8.07l-16.77-.12v1.23s16.77.24,16.77.24v-1.35ZM17.99,10.64l-11.26-.12c.55,1.45.38,3.7,2.39,3.92,1.51.16,3.78.1,5.38.13,3.07.06,3.02-1.23,3.49-3.92ZM10.91,15.8c-.63,1.88-1.66,3.66-1.85,5.67.47,7.82-.74,16.25-.13,24,.26,3.36,4.58,4.15,6.03,1.36.62-1.2.3-3.61.34-5.05.12-4.48.09-8.97.12-13.47.02-2.49.4-5.22.13-7.71-.05-.44-1.5-4.64-1.71-4.78l-2.92-.04Z"/>
      <path class="cls-1" d="M10.81,23.17c.78-.78,2.26-.82,3,.04.9,1.04.4,2.56.38,3.77-.06,4.53-.02,9.07-.12,13.59-.03,1.27.24,4.51-.15,5.48-.58,1.44-2.61,1.62-3.45.33-.48-.74-.19-.96-.18-1.64.01-2.62-.24-5.8-.01-8.33.06-.64.3-1.02,1.03-.77.62.21.21,1.77.2,2.24-.05,2.53.05,5.06,0,7.59.04.44.65.56.98.37.41-.24.21-2.27.24-2.82.2-4.48.07-8.97.12-13.47.02-1.61.34-3.41.13-5.02-.04-.34-.22-.58-.56-.67l-.77.45-.03,9.28c-.09.5-.44.86-.97.62-.72-.33-.26-2.39-.24-3.05.04-2.18-.26-5.05,0-7.11.03-.29.21-.68.41-.87Z"/>
    </g>
  </g>
</svg>