<?xml version="1.0" encoding="UTF-8"?>
<svg id="Layer_2" data-name="Layer 2" xmlns="http://www.w3.org/2000/svg" viewBox="0 0 25.4 47.57">
  <defs>
    <style>
      .cls-1 {
        fill: #603913;
        opacity: .62;
      }
    </style>
  </defs>
  <g id="Layer_12" data-name="Layer 12">
    <path class="cls-1" d="M24.98,3.81C21.31-1.31,12.51.31,7.14.05c-3.32.57-2.6,5.07.69,4.77v4.02c-.84-.14-2.04.26-2.28,1.16-.32,1.22.13,3.34-.05,4.66h-1.96C1.99,14.66-.02,16.94,0,18.52v24.98c.16,2.05,1.66,3.6,3.66,3.95,4.66-.22,9.66.34,14.28.02,2.38-.17,3.95-1.94,4.07-4.29-.11-8.45.2-16.94-.16-25.36-.17-1.28-2.13-3.17-3.39-3.17h-1.96c-.29-2.13,1.13-6.11-2.33-5.82v-4.02h3.02c.83,0,2.51.85,3.17,1.38.42.34.73.84,1.2,1.12,2.17,1.3,4.87-1.46,3.4-3.51ZM20.22,39.21h-9.79s-.55-.24-.65-.3c-.81-.42-1.23-1.18-1.31-2.08-.11-1.24-.15-4.5.05-5.67.11-.64.56-1.31,1.1-1.65.09-.06.66-.35.7-.35h9.9v10.05ZM17.84,16.35c.73.06,1.51.41,1.94,1.03.06.09.44.78.44.83v9.15h-9.58c-1.9,0-3.71,2.04-3.87,3.86-.13,1.53-.13,4.41,0,5.93.17,1.96,2.06,3.86,4.08,3.86h9.37v2.8c0,.81-1.36,1.93-2.18,1.95-4.47-.27-9.44.39-13.86.01-1.5-.13-2.46-1.2-2.49-2.7v-24.14c.11-1.43.93-2.39,2.39-2.59,4.45.28,9.37-.38,13.76,0ZM14.82,10.53v4.13h-7.62v-4.13h7.62ZM9.53,8.84v-4.02h2.96v4.02h-2.96ZM23.4,5.61c-.83.86-1.22-.18-1.86-.69-3.95-3.13-9.46-1.31-14.15-1.83-.83-.15-.93-.92-.22-1.33l9.72-.03c2.18.2,4.32.94,5.98,2.38.55.48,1.15.85.53,1.49Z"/>
  </g>
</svg>