<?xml version="1.0" encoding="UTF-8"?>
<svg id="Layer_2" data-name="Layer 2" xmlns="http://www.w3.org/2000/svg" viewBox="0 0 22.38 47.78">
  <defs>
    <style>
      .cls-1 {
        fill: #603913;
        opacity: .62;
      }
    </style>
  </defs>
  <g id="Layer_12" data-name="Layer 12">
    <path class="cls-1" d="M21.9,0c.31.22.53.46.47.88l-3.68,37.68c-.29,1.04-1.19,1.72-2.29,1.67-.12,1.71.17,3.66-.01,5.34-.12,1.07-.89,1.99-1.99,2.11-1.57.16-4.64.13-6.24,0-1.32-.1-2.09-.99-2.19-2.28-.13-1.66.1-3.49,0-5.17-1.12.05-2.05-.66-2.31-1.75L0,.88C-.05.46.16.22.48,0h21.42ZM20.88,1.4H1.5l3.58,36.88c.15.35.47.53.84.55,3.36-.2,7.02.26,10.34,0,.4-.03.73-.05.96-.43L20.88,1.4ZM14.91,40.23h-7.45v3.07h3.96c.22,0,.47.49.47.7s-.28.7-.47.7h-3.96c.01.67-.19,1.36.63,1.56,1.86-.16,4.33.29,6.12.02.88-.14.7-.89.71-1.58-1.93.36-1.95-1.75,0-1.4v-3.07Z"/>
  </g>
</svg>