<?xml version="1.0" encoding="UTF-8"?>
<svg id="Layer_2" data-name="Layer 2" xmlns="http://www.w3.org/2000/svg" viewBox="0 0 19.65 48.07">
  <defs>
    <style>
      .cls-1 {
        fill: #603913;
        opacity: .62;
      }
    </style>
  </defs>
  <g id="Layer_12" data-name="Layer 12">
    <path class="cls-1" d="M13.64,4.09v2.19c.73-.27,2.19.52,2.19,1.29v4.91h1.38c.09,0,.57.29.67.38.72.63.48,1.42.54,2.27.51.16,1.02.55,1.16,1.08l.07,30.46c-.11.6-.51,1.1-1.09,1.29l-17.08.09c-.66-.08-1.15-.47-1.41-1.07l-.07-30.46c.06-.7.58-1.2,1.22-1.4.06-.85-.18-1.64.54-2.27.1-.09.58-.38.67-.38h1.38v-4.91c0-.77,1.46-1.56,2.19-1.29V1.18s.35-.64.43-.72c.2-.2.68-.43.96-.47h8.46c.41.14.51.4.55.8.05.59.08,2.12-.01,2.67-.03.21-.32.63-.52.63h-2.24ZM12.31,1.33h-4.72s-.24.22-.24.24v4.72h4.96V1.33ZM13.64,1.33l.09,1.39,1.3-.05-.05-1.3-1.34-.04ZM14.5,12.49v-4.63s-.15-.17-.19-.19H5.34s-.19.17-.19.19v4.63h9.35ZM17.08,15.06l-.09-1.2-14.17-.04-.23.16v1.08s14.49,0,14.49,0ZM1.48,16.5l-.14.14v29.86s.15.17.19.19h16.6s.19-.17.19-.19v-29.86l-.14-.14H1.48Z"/>
  </g>
</svg>