<?xml version="1.0" encoding="UTF-8"?>
<svg id="Layer_2" data-name="Layer 2" xmlns="http://www.w3.org/2000/svg" viewBox="0 0 32.82 27.31">
  <defs>
    <style>
      .cls-1 {
        fill: #122618;
        stroke: #fff;
        stroke-miterlimit: 10;
        stroke-width: .47px;
      }
    </style>
  </defs>
  <g id="Layer_19" data-name="Layer 19">
    <path class="cls-1" d="M2.91,20.83v-1.74C-2.81,13.77,1.3,4.31,9.07,4.96,11.59-.4,18.68-1.45,22.59,3.1c.5.58.81,1.22,1.22,1.86,7.02-.52,11.41,7.42,7.01,13.08-.22.29-.91.9-.95,1.18-.03.22-.02,1.39.04,1.54.03.07.97.87,1.14,1.06.81.88,2.25,2.44,1.06,3.59-1.02.98-3.88.32-5.16.04-1.86-.41-2.68-1.04-4.65-.31-2.36.87-3.07,1.92-5.87,1.93-2.65.01-3.41-.89-5.66-1.83s-3.13-.15-5.26.29c-1.41.29-5.09,1.14-5.27-1.13-.09-1.14,1.82-2.89,2.65-3.58ZM23.03,17.69h6.27c3.12-3.17,2.31-8.44-1.56-10.58-.89-.49-2.22-.85-3.24-.85-.47,0-1.18.29-1.57-.02-.22-.18-.42-.84-.59-1.15-2.7-4.77-9.15-4.63-11.85.08-.24.43-.34,1.22-.97,1.24-.18,0-.36-.08-.55-.09-1.18-.02-1.95,0-3.06.42C1.43,8.43.11,14.31,3.51,17.69h6.27c-.14-1.44-.16-2.89-.91-4.18-.27-.48-.89-.91-.47-1.49.71-.99,1.76.91,1.99,1.48.54,1.31.68,2.79.73,4.2h4.57v-6.82s.18-.42.24-.47c.41-.37,1.18-.03,1.18.47v6.82h4.57c.03-1.4.19-2.89.73-4.2.23-.56,1.28-2.46,1.99-1.48.42.58-.2,1.02-.47,1.49-.74,1.28-.76,2.75-.91,4.18ZM28.54,19.11H4.34v1.26h24.2v-1.26ZM3.85,21.81c-.23.06-1,.86-1.2,1.08-.19.21-.85.98-.94,1.19-.05.11-.08.21,0,.32.24.36,2.2.05,2.66-.03,2.45-.41,3.93-1.49,6.47-.59s3.45,2.21,6.41,1.95c1.91-.16,3.81-1.85,5.79-2.25s4.51.9,6.6,1.06c.27.02,1.52.09,1.6-.19.05-.17-.67-1.04-.82-1.22-.19-.23-1.22-1.3-1.42-1.34l-25.13.02Z"/>
  </g>
</svg>