<?xml version="1.0" encoding="UTF-8"?>
<svg id="Layer_2" data-name="Layer 2" xmlns="http://www.w3.org/2000/svg" viewBox="0 0 239.77 101.99">
  <defs>
    <style>
      .cls-1 {
        fill: none;
        stroke: #ccab2c;
        stroke-miterlimit: 10;
      }

      .cls-2 {
        fill: #ccab2c;
      }
    </style>
  </defs>
  <g id="Layer_7" data-name="Layer 7">
    <g>
      <path class="cls-1" d="M72.27,99.52c-27.39-.09-43.63-.19-62.17-.28-5.3,0-9.6-4.27-9.6-9.54V10.04C.5,4.77,4.8.5,10.1.5h219.56c5.3,0,9.6,4.27,9.6,9.54v79.66c-.19,2.08-.81,4.76-2.81,6.75,0,0-2.39,2.37-6.79,2.79-3.27.31-23.75.46-62.38.45"/>
      <g>
        <path class="cls-2" d="M53.22,69.52c0-15.08-29.27-20.95-29.27-38.48,0-10.28,6.17-16.74,18.21-16.74,8.13,0,12.24,2.84,16.94,7.83l-2.74,13.41h-.1c-2.55-10.87-5.87-20.07-14.1-20.07-5.97,0-11.26,4.9-11.26,12.34,0,17.04,29.67,20.76,29.67,38.67,0,12.04-9.2,17.92-19.29,17.92-8.03,0-13.32-3.03-17.92-8.03l2.74-13.41h.1c3.33,12.92,8.13,20.17,15.76,20.17,5.58,0,11.26-4.99,11.26-13.61Z"/>
        <path class="cls-2" d="M77.49,83.22v.1h-10.48v-.1c1.37-1.27,1.86-5.78,1.86-21.05v-11.06c0-15.18-.49-17.62-1.86-18.9v-.1l8.62-2.06v32.21-.1c0,15.27.59,19.78,1.86,21.05ZM67.99,20.27c0-2.35,1.96-4.21,4.31-4.21s4.21,1.86,4.21,4.21-1.86,4.21-4.21,4.21-4.31-1.86-4.31-4.21Z"/>
        <path class="cls-2" d="M120.96,70.59c-3.13,8.81-9.99,13.22-16.94,13.22-9.89,0-19.97-8.81-19.97-26.83,0-13.41,7.05-26.93,20.95-26.93,9.2,0,15.08,5.48,15.27,12.24v.59h-27.02c-1.47,4.01-2.25,8.91-2.25,14.1,0,15.37,8.32,22.03,16.35,22.03,5.48,0,10.77-3.13,13.22-8.52l.39.1ZM93.74,41.61h19.78c-.39-6.66-4.8-10.48-8.52-10.48-4.5,0-8.62,4.11-11.26,10.48Z"/>
        <path class="cls-2" d="M155.71,70.1c0,9.2-7.73,13.71-15.47,13.71-6.27,0-11.06-2.25-14.59-6.17l3.13-10.28h.1c2.55,9.99,6.36,15.57,11.06,15.57,3.72,0,9.11-3.92,9.11-10.48,0-11.55-22.32-16.16-22.32-29.57,0-7.93,5.68-12.83,14.88-12.83,6.27,0,9.99,2.15,13.51,5.97l-3.13,10.28h-.1c-1.86-8.32-4.7-15.37-9.79-15.37-3.62,0-9.01,3.72-9.01,9.5,0,13.02,22.62,15.86,22.62,29.67Z"/>
        <path class="cls-2" d="M172.06,62.27c0,16.35,1.86,17.33,3.23,18.6v.1c-.49,1.47-2.64,2.74-5.09,2.74-3.53,0-4.9-3.23-4.9-6.76v-28.3c-.1-13.12-.98-16.84-4.99-16.84h-.49v-1.27h.78c4.7,0,8.42-4.11,6.17-16.25h6.76c.78,10.67-1.57,15.18-8.13,16.25h12.83v1.27h-6.17v30.45Z"/>
        <path class="cls-2" d="M216.41,80.87v.1c-.49,1.47-2.64,2.74-5.19,2.74-3.52,0-4.8-3.23-4.8-6.76v-4.99c-2.74,8.32-8.52,11.94-13.8,11.94-5.87,0-11.16-4.5-11.16-11.85,0-18.01,31.33-19.78,31.33-31.53,0-5.97-4.6-9.5-10.08-9.5s-11.85,3.52-15.37,11.75h-.2l-1.57-7.64c5.58-3.52,11.16-5.09,15.96-5.09,7.15,0,12.44,3.72,12.44,10.48,0,1.47-.29,2.84-.88,4.11v-.1,17.72c0,16.35,1.96,17.33,3.33,18.6ZM206.42,51.4c-7.64,5.39-18.21,9.89-18.21,20.66,0,5.87,3.03,8.91,6.66,8.91,5.19,0,11.46-6.36,11.55-20.46v-9.11Z"/>
        <g>
          <path class="cls-2" d="M79.35,100.01c.18.21.26.46.26.73,0,.23-.06.43-.17.62-.11.18-.28.33-.5.43-.22.1-.48.16-.79.16h-1.56v-4.51h1.51c.46,0,.8.11,1.04.32.24.21.36.48.36.82,0,.28-.08.51-.23.68-.15.17-.34.3-.58.36.25.05.47.18.64.39ZM77.05,99.44h1.05c.3,0,.54-.07.71-.22.17-.14.25-.34.25-.6s-.08-.44-.25-.59c-.17-.14-.41-.21-.72-.21h-1.03v1.61ZM78.89,101.34c.18-.15.27-.37.27-.64s-.1-.49-.29-.65-.45-.24-.77-.24h-1.06v1.76h1.08c.33,0,.58-.08.76-.23Z"/>
          <path class="cls-2" d="M84.98,97.44l-1.44,2.75v1.75h-.45v-1.75l-1.46-2.75h.51l1.17,2.34,1.17-2.34h.5Z"/>
          <path class="cls-2" d="M93.87,97.44v4.51h-.45v-2.11h-2.44v2.11h-.45v-4.51h.45v2.02h2.44v-2.02h.45Z"/>
          <path class="cls-2" d="M96.89,97.44v2.84c0,.45.11.78.32.99s.5.32.87.32.66-.11.87-.32c.21-.21.31-.54.31-1v-2.84h.45v2.83c0,.57-.15,1-.45,1.29-.3.29-.7.43-1.18.43s-.88-.14-1.18-.43c-.3-.29-.45-.72-.45-1.29v-2.83h.45Z"/>
          <path class="cls-2" d="M102.86,101.84c-.23-.1-.4-.25-.53-.43-.13-.18-.2-.39-.21-.62h.48c.02.22.12.41.29.58.17.17.42.25.75.25.3,0,.55-.08.73-.24.18-.16.27-.36.27-.6,0-.19-.05-.35-.15-.47-.1-.12-.22-.21-.37-.26-.15-.06-.35-.12-.61-.19-.3-.08-.54-.16-.71-.24-.18-.08-.33-.2-.45-.36-.12-.16-.19-.38-.19-.66,0-.23.06-.44.18-.62.12-.18.29-.33.51-.43.22-.1.47-.15.75-.15.42,0,.75.1,1.01.31.26.2.4.47.44.79h-.49c-.03-.18-.13-.35-.3-.49s-.4-.22-.7-.22c-.27,0-.5.07-.68.22s-.27.34-.27.59c0,.19.05.34.15.46.1.12.22.2.37.26.15.06.35.12.6.19.29.08.53.16.71.24s.33.2.46.36c.12.16.19.38.19.66,0,.21-.06.41-.17.6-.11.19-.28.34-.5.46-.22.12-.48.17-.79.17s-.56-.05-.78-.15Z"/>
          <path class="cls-2" d="M110.87,97.44v4.51h-.45v-2.11h-2.44v2.11h-.45v-4.51h.45v2.02h2.44v-2.02h.45Z"/>
          <path class="cls-2" d="M119.4,100.88h-2.05l-.39,1.07h-.48l1.64-4.45h.51l1.64,4.45h-.48l-.39-1.07ZM119.26,100.51l-.89-2.44-.89,2.44h1.78Z"/>
          <path class="cls-2" d="M125.95,101.95h-.45l-2.49-3.79v3.79h-.45v-4.51h.45l2.49,3.78v-3.78h.45v4.51Z"/>
          <path class="cls-2" d="M131.15,97.72c.36.18.63.44.82.78.19.34.28.74.28,1.21s-.09.86-.28,1.2c-.19.34-.46.6-.82.77-.36.18-.78.27-1.28.27h-1.33v-4.51h1.33c.5,0,.93.09,1.28.27ZM131.3,101.08c.33-.33.49-.79.49-1.38s-.16-1.06-.49-1.39c-.33-.33-.81-.5-1.43-.5h-.88v3.76h.88c.63,0,1.11-.16,1.43-.49Z"/>
          <path class="cls-2" d="M140.72,100.01c.18.21.26.46.26.73,0,.23-.06.43-.17.62-.11.18-.28.33-.5.43-.22.1-.48.16-.79.16h-1.56v-4.51h1.51c.46,0,.8.11,1.04.32.24.21.36.48.36.82,0,.28-.08.51-.23.68-.15.17-.34.3-.58.36.25.05.47.18.64.39ZM138.42,99.44h1.05c.3,0,.54-.07.71-.22.17-.14.25-.34.25-.6s-.08-.44-.25-.59c-.17-.14-.41-.21-.72-.21h-1.03v1.61ZM140.26,101.34c.18-.15.27-.37.27-.64s-.1-.49-.29-.65-.45-.24-.77-.24h-1.06v1.76h1.08c.33,0,.58-.08.76-.23Z"/>
          <path class="cls-2" d="M143.83,101.58h1.62v.37h-2.07v-4.51h.45v4.14Z"/>
          <path class="cls-2" d="M148.54,101.7c-.34-.2-.61-.47-.8-.82-.2-.35-.29-.75-.29-1.19s.1-.84.29-1.19.46-.62.8-.82c.34-.2.72-.29,1.13-.29s.8.1,1.14.29c.34.2.61.47.8.82s.29.75.29,1.19-.1.84-.29,1.19c-.19.35-.46.62-.8.82-.34.2-.72.29-1.14.29s-.79-.1-1.13-.29ZM150.57,101.37c.27-.15.48-.38.63-.67s.23-.63.23-1.01-.08-.72-.23-1.01c-.15-.29-.37-.51-.63-.66-.27-.15-.57-.23-.9-.23s-.64.08-.9.23c-.27.15-.48.38-.63.66-.16.29-.23.62-.23,1.01s.08.72.23,1.01c.15.29.36.51.63.67s.57.23.9.23.64-.08.9-.23Z"/>
          <path class="cls-2" d="M155.18,101.7c-.34-.2-.61-.47-.8-.82-.2-.35-.29-.75-.29-1.19s.1-.84.29-1.19.46-.62.8-.82c.34-.2.72-.29,1.13-.29s.8.1,1.14.29c.34.2.61.47.8.82s.29.75.29,1.19-.1.84-.29,1.19c-.19.35-.46.62-.8.82-.34.2-.72.29-1.14.29s-.79-.1-1.13-.29ZM157.21,101.37c.27-.15.48-.38.63-.67s.23-.63.23-1.01-.08-.72-.23-1.01c-.15-.29-.37-.51-.63-.66-.27-.15-.57-.23-.9-.23s-.64.08-.9.23c-.27.15-.48.38-.63.66-.16.29-.23.62-.23,1.01s.08.72.23,1.01c.15.29.36.51.63.67s.57.23.9.23.64-.08.9-.23Z"/>
          <path class="cls-2" d="M165.33,97.5v4.45h-.45v-3.55l-1.59,3.55h-.33l-1.59-3.54v3.54h-.45v-4.45h.48l1.72,3.85,1.72-3.85h.48Z"/>
        </g>
      </g>
    </g>
  </g>
</svg>