<?xml version="1.0" encoding="UTF-8"?>
<svg id="Layer_2" data-name="Layer 2" xmlns="http://www.w3.org/2000/svg" viewBox="0 0 32.31 27.13">
  <defs>
    <style>
      .cls-1 {
        fill: #122618;
        stroke: #fff;
        stroke-miterlimit: 10;
        stroke-width: .24px;
      }
    </style>
  </defs>
  <g id="Layer_19" data-name="Layer 19">
    <path class="cls-1" d="M28.12,15.84c.71.5,1.42.99,2.01,1.65,1.56,1.74,3.29,5.76.83,7.43-4.57,3.1-11.97,2.23-16.98.77-3.97-1.16-7.9-2.57-11.8-3.91-2.47-1.46-2.79-4.88-.56-6.74,1.55-1.3,3.83-1,5.71-.73,1.36.19,2.69.56,4.02.89.19-.01.35-.44.48-.58l-9.08-2.91C-.18,10.52-.83,6.69,1.65,4.65c1.54-1.26,3.82-.96,5.68-.7,1.38.19,2.71.59,4.07.89.35-.1,1.86-2.93,2.28-3.42,1.01-1.2,2.67-1.63,4.14-1.04,3.32,1.85,7.15,3.27,10.39,5.19,2.21,1.31,3.9,3.87,3.99,6.48.08,2.47-2.2,3.04-4.08,3.79ZM7.62,10.15l5.85,1.86c1.11-1.48,2.8-1.91,4.51-1.2,1.89.78,3.72,2.02,5.63,2.77,1.61-.13,3.15-.41,4.66-.97.58-.22,2.59-1.01,2.66-1.66.02-.16-.28-.97-.36-1.17-.65-1.55-1.8-2.67-3.24-3.48-3.26-1.83-6.88-3.34-10.22-5.04-2.49-.63-3.24,1.95-4.38,3.57-1.44,2.05-3.17,3.76-5.12,5.32ZM10.66,5.75c-1.18-.26-2.33-.61-3.53-.77-1.45-.19-3.51-.51-4.74.42-.29.22-1.04,1.06-1.04,1.42,0,.49,1.01,1.5,1.46,1.7l3.61,1.18c1.54-1.16,3.06-2.4,4.24-3.94ZM12.93,12.93l-10.23-3.31c-.54-.21-.99-.56-1.4-.95.21.83.77,1.48,1.49,1.9l9.48,3.13c.36.05.47-.53.66-.76ZM7.62,20.49c3.8,1.08,7.47,2.64,11.42,3.16,3.48.46,6.72.43,9.98-1,.47-.21,1.86-.82,1.92-1.36.04-.32-.56-1.61-.75-1.94-.68-1.19-1.67-2.04-2.85-2.71-3.26-1.83-6.88-3.34-10.22-5.04-2.49-.63-3.24,1.95-4.38,3.57-1.44,2.05-3.17,3.76-5.12,5.32ZM31.16,12.41c-.05-.04-1.05.56-1.21.64-1.45.69-3.02,1.16-4.61,1.4l1.39.72c.81-.23,1.61-.48,2.38-.82.91-.4,1.89-.82,2.05-1.93ZM10.66,16.1c-1.18-.26-2.33-.61-3.53-.77-1.45-.19-3.51-.51-4.74.42-.29.22-1.04,1.06-1.04,1.42,0,.49,1.01,1.5,1.46,1.7l3.61,1.18c1.54-1.16,3.06-2.4,4.24-3.94ZM31.16,22.69c-2.81,1.8-6.16,2.4-9.47,2.27-6.61-.27-12.72-3.21-18.99-5-.54-.21-.99-.56-1.4-.95.21.83.77,1.48,1.49,1.9,8.06,2.34,17.87,7.48,26.24,3.82.95-.42,2.03-.85,2.13-2.03Z"/>
  </g>
</svg>