<?xml version="1.0" encoding="UTF-8"?>
<svg id="Layer_2" data-name="Layer 2" xmlns="http://www.w3.org/2000/svg" viewBox="0 0 24.18 29.32">
  <defs>
    <style>
      .cls-1 {
        fill: #e4bd22;
        opacity: .74;
      }
    </style>
  </defs>
  <g id="Layer_5" data-name="Layer 5">
    <path class="cls-1" d="M13.35,0c.55.28.97.94,1.33,1.45,2.29,3.24,3.09,6.39,1.01,10.02-.09.16-.33.37-.36.49-.08.25-.05.95-.09,1.28-.12.95-.35,1.91-.78,2.76.98,2.24,1.75,4.58,2.16,7.01.96-.88,1.6-2.09,2.17-3.25-.16-.46-.43-.91-.61-1.38-1.55-4.09-.39-7.33,2.22-10.58.28-.35,1.32-1.61,1.67-1.71.82-.24,1.1.23,1.32.89.42,1.25.75,3.22.79,4.54.01.36.06.87-.43.89-.43.02-.46-.38-.48-.72-.07-.88-.09-1.61-.25-2.5-.1-.54-.31-1.76-.54-2.21-.02-.04,0-.11-.1-.07-.14.06-1.01,1.09-1.17,1.29-1.14,1.41-2.39,3.38-2.73,5.17-.34,1.77.04,3.46.67,5.11l1.39-5.57c.16-.53.92-.42.85.15l-1.32,5.59c1.05-.83,2.04-1.99,2.59-3.23.13-.3.43-1.4.54-1.53.19-.22.61-.15.73.13.1.24-.09.74-.17,1-.54,1.66-1.95,3.46-3.34,4.5-.18.14-.65.37-.74.46-.16.16-.46.94-.62,1.21-.59,1.03-1.3,2.07-2.22,2.82.06.89.2,1.77.26,2.66.04.61.13,1.6.06,2.18-.06.52-.68.6-.86.11l-.12-2.26c-1.7.98-3.72,1.47-5.67,1.06-1.48-.31-3.03-1.18-4.25-2.04-.34-.24-1.09-.76-1.34-1.04-.44-.51-.26-1.16.32-1.44,1.4-.67,4.21-1.1,5.76-1,1.93.12,3.68,1.18,5.01,2.52-.18-1.72-.54-3.43-1.08-5.07-1.01.13-2.02-.07-2.99-.33-.21-.05-.79-.31-.93-.3-.09,0-.19.11-.3.13-3.86.86-6.6-.62-8.94-3.56-.29-.37-1.35-1.79-1.37-2.18-.04-.51.4-.9.88-.94,3.15-.28,6.8.62,8.76,3.21.58.77,1.04,1.65,1.36,2.56,1.05.34,2.14.62,3.25.59-.96-3.03-2.62-5.87-4.78-8.19-3.01-.02-5.75-1.32-7.46-3.81-.23-.34-.86-1.11-.53-1.48.52-.59,1.04.7,1.27,1.02,1.42,2,3.29,3,5.72,3.36l-4.06-4.16c-.07-.36.37-.68.68-.44l3.95,3.86c-.13-1.18-.55-2.42-1.18-3.43C6.68,3.14,3.61,2,.95,1.2c-.06.24.05.51.12.74.11.4.66,1.66.65,1.92,0,.4-.61.63-.88.09C.64,3.57.02,1.72,0,1.34-.03.82.48.32,1,.34c.65.03,2.52.77,3.18,1.06,3.81,1.68,6.01,4.33,6.22,8.61,1.04,1.11,1.95,2.32,2.74,3.61.22.36.47.94.7,1.24.04.05,0,.1.13.07.25-.96.47-1.94.45-2.94-2.09-1.77-3.33-3.95-3.2-6.77.04-.89.7-4.46,1.29-5.01.11-.1.26-.14.37-.23h.46ZM15.23,10.48c.32-.79.63-1.59.74-2.44.35-2.62-1.23-5.19-2.83-7.12-.91,2.26-1.53,5.11-.51,7.44.37.85.97,1.65,1.63,2.29l-.72-4.66c.03-.39.53-.51.78-.24.39,1.52.52,3.1.8,4.64.02.09-.04.1.11.09ZM10.14,17.69c-.63-1.36-1.71-2.65-3.07-3.31-1.76-.85-3.88-.98-5.8-.98-.05.05.64,1.03.72,1.14,1.16,1.62,2.78,3.32,4.77,3.81.96.24,2,.28,2.98.11l-4.18-2.24c-.36-.62.05-.93.69-.63,1.31.63,2.57,1.47,3.89,2.09ZM15.29,25.37c-1-1.07-2.45-1.97-3.93-2.17s-3.11.08-4.5.47c-.16.05-1.3.37-1.3.47,2.53,2.13,5.8,3.89,9.12,2.36l.5-.27-4.65-.81c-.39-.1-.34-.71.01-.82l4.75.78Z"/>
  </g>
</svg>