<?xml version="1.0" encoding="UTF-8"?>
<svg id="Layer_2" data-name="Layer 2" xmlns="http://www.w3.org/2000/svg" viewBox="0 0 38.18 27.5">
  <defs>
    <style>
      .cls-1 {
        fill: #122618;
      }
    </style>
  </defs>
  <g id="Layer_14" data-name="Layer 14">
    <g>
      <path class="cls-1" d="M38.18,3.36v10c-.17.22-.32.4-.63.38l-34.21-.04c-1.16-1.07-2.33-2.17-3.34-3.38L.02.37.35.04l34.28-.04.41.19,3.13,3.17ZM34,1.2H1.18v8.35h32.82V1.2ZM36.98,11.64V3.84l-1.79-1.75v7.8l1.79,1.75ZM36.09,12.53l-1.75-1.79H2.07l1.75,1.79h32.26Z"/>
      <path class="cls-1" d="M35.62,16.88c.12.13.16.36.18.53.27,2.96-.21,6.33,0,9.33,0,.27-.14.62-.43.69-.77.17-2-.1-2.82.02-7.29-.38-14.56-.76-21.85-1.13-1-.05-2.25.04-3.21-.07-.73-.08-1.15-.6-1.5-1.18-.82-.12-1.95.13-2.73-.03-.32-.07-.79-.54-.86-.86-.12-.58-.1-3.44-.02-4.09.05-.43.51-.93.94-1,.8-.12,1.84.09,2.67-.02.2-.2.3-.49.5-.69.76-.74,1.9-.44,2.87-.49,7.63-.37,15.27-.86,22.9-1.12.96-.03,2.03-.2,2.98-.08.13.02.3.08.38.18ZM34.6,17.9h-.6v8.35h.6v-8.35ZM32.81,17.98l-23.27,1.12v5.97l23.27,1.12v-8.21ZM8.34,19.1c-.6,0-1.13-.1-1.2.63-.14,1.55.1,3.33.02,4.91.17.55.72.42,1.18.43v-5.97ZM5.95,20.29h-2.39v3.58h2.39v-3.58Z"/>
      <path class="cls-1" d="M8.84,2.41l17.63.02c.22.09.36.29.37.52l-.04,5.04c-.1.25-.33.39-.6.37-4.97.04-9.95-.06-14.93,0-.65,0-2.83.43-2.95-.48.12-1.57-.14-3.31,0-4.86.04-.39.13-.49.51-.61ZM25.64,3.58l-16.11.07v3.51h16.11v-3.58Z"/>
      <path class="cls-1" d="M14.14,20.31h14.66c.23.05.39.33.42.55.07.43.06,2.09-.01,2.51-.05.3-.22.49-.54.5l-14.53-.02c-.3-.11-.4-.23-.43-.54-.05-.53-.07-2.04,0-2.54.04-.24.19-.41.42-.47ZM28.03,21.48h-13.13v1.19h13.13v-1.19Z"/>
      <path class="cls-1" d="M11.75,4.79l11.55-.02c.75.07.76,1.12,0,1.2h-11.42c-.68-.06-.78-.96-.13-1.18Z"/>
    </g>
  </g>
</svg>